<?xml version="1.0" encoding="UTF-8" standalone="no"?>
<!DOCTYPE svg PUBLIC "-//W3C//DTD SVG 1.1//EN"
 "http://www.w3.org/Graphics/SVG/1.1/DTD/svg11.dtd">
<!-- Generated by graphviz version 2.38.0 (20140413.2041)
 -->
<!-- Title: g Pages: 1 -->
<svg width="430pt" height="459pt"
 viewBox="0.00 0.00 429.60 459.00" xmlns="http://www.w3.org/2000/svg" xmlns:xlink="http://www.w3.org/1999/xlink">
<g id="graph0" class="graph" transform="scale(1 1) rotate(0) translate(4 455)">
<title>g</title>
<polygon fill="white" stroke="none" points="-4,4 -4,-455 425.595,-455 425.595,4 -4,4"/>
<!-- ctx -->
<g id="node1" class="node"><title>ctx</title>
<ellipse fill="none" stroke="black" cx="68.5955" cy="-433" rx="68.6911" ry="18"/>
<text text-anchor="middle" x="68.5955" y="-428.8" font-family="sans-serif" font-size="14.00">cerebral cortex</text>
</g>
<!-- p -->
<g id="node2" class="node"><title>p</title>
<ellipse fill="none" stroke="black" cx="200.595" cy="-350" rx="44.5441" ry="18"/>
<text text-anchor="middle" x="200.595" y="-345.8" font-family="sans-serif" font-size="14.00">putamen</text>
</g>
<!-- ctx&#45;&gt;p -->
<g id="edge1" class="edge"><title>ctx&#45;&gt;p</title>
<path fill="none" stroke="black" d="M87.8316,-415.615C99.2342,-406.32 114.206,-394.82 128.482,-386 139.026,-379.485 150.962,-373.268 162.045,-367.928"/>
<polygon fill="none" stroke="black" points="163.548,-371.089 171.104,-363.663 160.566,-364.756 163.548,-371.089"/>
<text text-anchor="middle" x="161.152" y="-388.2" font-family="sans-serif" font-size="11.00">(+) glutamate</text>
</g>
<!-- gpi -->
<g id="node3" class="node"><title>gpi</title>
<ellipse fill="none" stroke="black" cx="181.595" cy="-101" rx="52.4521" ry="18"/>
<text text-anchor="middle" x="181.595" y="-96.8" font-family="sans-serif" font-size="14.00">GP interna</text>
</g>
<!-- p&#45;&gt;gpi -->
<g id="edge2" class="edge"><title>p&#45;&gt;gpi</title>
<path fill="none" stroke="black" d="M224.157,-334.577C231.633,-328.977 239.318,-321.978 244.595,-314 281.674,-257.949 299.001,-228.998 275.595,-166 267.206,-143.419 245.46,-127.824 224.995,-117.686"/>
<ellipse fill="black" stroke="black" cx="221.163" cy="-115.891" rx="4.00002" ry="4.00002"/>
<text text-anchor="middle" x="308.902" y="-222.2" font-family="sans-serif" font-size="11.00">(&#45;) GABA</text>
</g>
<!-- gpe -->
<g id="node4" class="node"><title>gpe</title>
<ellipse fill="none" stroke="black" cx="188.595" cy="-267" rx="54.8657" ry="18"/>
<text text-anchor="middle" x="188.595" y="-262.8" font-family="sans-serif" font-size="14.00">GP externa</text>
</g>
<!-- p&#45;&gt;gpe -->
<g id="edge6" class="edge"><title>p&#45;&gt;gpe</title>
<path fill="none" stroke="black" d="M198.051,-331.822C196.396,-320.653 194.21,-305.895 192.356,-293.384"/>
<ellipse fill="black" stroke="black" cx="191.723" cy="-289.11" rx="4.00001" ry="4.00001"/>
<text text-anchor="middle" x="217.902" y="-305.2" font-family="sans-serif" font-size="11.00">(&#45;) GABA</text>
</g>
<!-- thal -->
<g id="node5" class="node"><title>thal</title>
<ellipse fill="none" stroke="black" cx="104.595" cy="-18" rx="72.5844" ry="18"/>
<text text-anchor="middle" x="104.595" y="-13.8" font-family="sans-serif" font-size="14.00">VA/VL thalamus</text>
</g>
<!-- gpi&#45;&gt;thal -->
<g id="edge3" class="edge"><title>gpi&#45;&gt;thal</title>
<path fill="none" stroke="black" d="M166.013,-83.6084C154.505,-71.5019 138.7,-54.8765 126.006,-41.5226"/>
<ellipse fill="black" stroke="black" cx="123.175" cy="-38.5443" rx="4.00002" ry="4.00002"/>
<text text-anchor="middle" x="170.902" y="-56.2" font-family="sans-serif" font-size="11.00">(&#45;) GABA</text>
</g>
<!-- stn -->
<g id="node7" class="node"><title>stn</title>
<ellipse fill="none" stroke="black" cx="181.595" cy="-184" rx="85.1307" ry="18"/>
<text text-anchor="middle" x="181.595" y="-179.8" font-family="sans-serif" font-size="14.00">subthalmic nucleus</text>
</g>
<!-- gpe&#45;&gt;stn -->
<g id="edge7" class="edge"><title>gpe&#45;&gt;stn</title>
<path fill="none" stroke="black" d="M187.111,-248.822C186.146,-237.653 184.87,-222.895 183.789,-210.384"/>
<ellipse fill="black" stroke="black" cx="183.422" cy="-206.138" rx="4" ry="4"/>
<text text-anchor="middle" x="207.902" y="-222.2" font-family="sans-serif" font-size="11.00">(&#45;) GABA</text>
</g>
<!-- thal&#45;&gt;ctx -->
<g id="edge4" class="edge"><title>thal&#45;&gt;ctx</title>
<path fill="none" stroke="black" d="M92.2063,-35.7372C81.7928,-51.4847 68.5955,-76.1473 68.5955,-100 68.5955,-351 68.5955,-351 68.5955,-351 68.5955,-368.938 68.5955,-389.112 68.5955,-404.838"/>
<polygon fill="none" stroke="black" points="65.0956,-404.934 68.5955,-414.934 72.0956,-404.934 65.0956,-404.934"/>
<text text-anchor="middle" x="101.152" y="-222.2" font-family="sans-serif" font-size="11.00">(+) glutamate</text>
</g>
<!-- snc -->
<g id="node6" class="node"><title>snc</title>
<ellipse fill="none" stroke="black" cx="288.595" cy="-433" rx="133" ry="18"/>
<text text-anchor="middle" x="288.595" y="-428.8" font-family="sans-serif" font-size="14.00">substantia nigra pars compacta</text>
</g>
<!-- snc&#45;&gt;p -->
<g id="edge5" class="edge"><title>snc&#45;&gt;p</title>
<path fill="none" stroke="black" d="M225.086,-416.958C215.808,-412.067 207.401,-405.586 201.476,-397 197.725,-391.564 196.306,-384.84 196.103,-378.228"/>
<polygon fill="none" stroke="black" points="199.604,-378.298 196.624,-368.13 192.613,-377.936 199.604,-378.298"/>
<text text-anchor="middle" x="234.155" y="-388.2" font-family="sans-serif" font-size="11.00">(+) dopamine</text>
</g>
<!-- snc&#45;&gt;p -->
<g id="edge9" class="edge"><title>snc&#45;&gt;p</title>
<path fill="none" stroke="black" d="M283.311,-414.688C279.767,-405.318 274.317,-394.049 266.595,-386 259.011,-378.094 249.246,-371.595 239.566,-366.435"/>
<ellipse fill="black" stroke="black" cx="235.792" cy="-364.542" rx="4.00002" ry="4.00002"/>
<text text-anchor="middle" x="305.775" y="-388.2" font-family="sans-serif" font-size="11.00">(&#45;) dopamine</text>
</g>
<!-- stn&#45;&gt;gpi -->
<g id="edge8" class="edge"><title>stn&#45;&gt;gpi</title>
<path fill="none" stroke="black" d="M181.595,-165.822C181.595,-155.19 181.595,-141.306 181.595,-129.204"/>
<polygon fill="none" stroke="black" points="185.096,-129.153 181.595,-119.153 178.096,-129.153 185.096,-129.153"/>
<text text-anchor="middle" x="214.152" y="-139.2" font-family="sans-serif" font-size="11.00">(+) glutamate</text>
</g>
</g>
</svg>
