<?xml version="1.0" encoding="UTF-8" standalone="no"?>
<svg
   xmlns:dc="http://purl.org/dc/elements/1.1/"
   xmlns:cc="http://creativecommons.org/ns#"
   xmlns:rdf="http://www.w3.org/1999/02/22-rdf-syntax-ns#"
   xmlns:svg="http://www.w3.org/2000/svg"
   xmlns="http://www.w3.org/2000/svg"
   xmlns:sodipodi="http://sodipodi.sourceforge.net/DTD/sodipodi-0.dtd"
   xmlns:inkscape="http://www.inkscape.org/namespaces/inkscape"
   width="1615"
   height="512"
   viewBox="0 0 1615 512"
   version="1.1"
   id="svg4674"
   sodipodi:docname="motor-neuron-key.svg"
   inkscape:version="0.92.1 r"
   inkscape:label="myelin">
  <metadata
     id="metadata4680">
    <rdf:RDF>
      <cc:Work
         rdf:about="">
        <dc:format>image/svg+xml</dc:format>
        <dc:type
           rdf:resource="http://purl.org/dc/dcmitype/StillImage" />
        <dc:title></dc:title>
        <cc:license
           rdf:resource="http://creativecommons.org/publicdomain/zero/1.0/" />
        <dc:creator>
          <cc:Agent>
            <dc:title>James Ackman</dc:title>
          </cc:Agent>
        </dc:creator>
      </cc:Work>
      <cc:License
         rdf:about="http://creativecommons.org/publicdomain/zero/1.0/">
        <cc:permits
           rdf:resource="http://creativecommons.org/ns#Reproduction" />
        <cc:permits
           rdf:resource="http://creativecommons.org/ns#Distribution" />
        <cc:permits
           rdf:resource="http://creativecommons.org/ns#DerivativeWorks" />
      </cc:License>
    </rdf:RDF>
  </metadata>
  <defs
     id="defs4678">
    <marker
       inkscape:isstock="true"
       style="overflow:visible;"
       id="marker6602"
       refX="0.0"
       refY="0.0"
       orient="auto"
       inkscape:stockid="Arrow1Lend">
      <path
         transform="scale(0.8) rotate(180) translate(12.5,0)"
         style="fill-rule:evenodd;stroke:#333333;stroke-width:1pt;stroke-opacity:1;fill:#808080;fill-opacity:1"
         d="M 0.0,0.0 L 5.0,-5.0 L -12.5,0.0 L 5.0,5.0 L 0.0,0.0 z "
         id="path6600" />
    </marker>
    <marker
       inkscape:stockid="Arrow1Lend"
       orient="auto"
       refY="0.0"
       refX="0.0"
       id="marker6464"
       style="overflow:visible;"
       inkscape:isstock="true"
       inkscape:collect="always">
      <path
         id="path6462"
         d="M 0.0,0.0 L 5.0,-5.0 L -12.5,0.0 L 5.0,5.0 L 0.0,0.0 z "
         style="fill-rule:evenodd;stroke:#333333;stroke-width:1pt;stroke-opacity:1;fill:#808080;fill-opacity:1"
         transform="scale(0.8) rotate(180) translate(12.5,0)" />
    </marker>
    <marker
       inkscape:stockid="Arrow1Lend"
       orient="auto"
       refY="0.0"
       refX="0.0"
       id="Arrow1Lend"
       style="overflow:visible;"
       inkscape:isstock="true">
      <path
         id="path6181"
         d="M 0.0,0.0 L 5.0,-5.0 L -12.5,0.0 L 5.0,5.0 L 0.0,0.0 z "
         style="fill-rule:evenodd;stroke:#fe0000;stroke-width:1pt;stroke-opacity:1;fill:#fe0000;fill-opacity:1"
         transform="scale(0.8) rotate(180) translate(12.5,0)" />
    </marker>
    <inkscape:path-effect
       effect="spiro"
       id="path-effect6141"
       is_visible="true" />
    <inkscape:path-effect
       is_visible="true"
       id="path-effect6137"
       effect="spiro" />
    <inkscape:path-effect
       effect="spiro"
       id="path-effect6133"
       is_visible="true" />
    <inkscape:path-effect
       is_visible="true"
       id="path-effect6129"
       effect="spiro" />
    <inkscape:path-effect
       effect="spiro"
       id="path-effect6125"
       is_visible="true" />
    <inkscape:path-effect
       is_visible="true"
       id="path-effect6121"
       effect="spiro" />
    <inkscape:path-effect
       effect="spiro"
       id="path-effect4221"
       is_visible="true" />
    <inkscape:path-effect
       is_visible="true"
       id="path-effect4216"
       effect="spiro" />
    <inkscape:path-effect
       effect="spiro"
       id="path-effect4212"
       is_visible="true" />
    <inkscape:path-effect
       is_visible="true"
       id="path-effect4208"
       effect="spiro" />
    <inkscape:path-effect
       effect="spiro"
       id="path-effect4204"
       is_visible="true" />
    <inkscape:path-effect
       is_visible="true"
       id="path-effect4200"
       effect="spiro" />
    <inkscape:path-effect
       effect="spiro"
       id="path-effect4190"
       is_visible="true" />
  </defs>
  <sodipodi:namedview
     pagecolor="#ffffff"
     bordercolor="#666666"
     borderopacity="1"
     objecttolerance="10"
     gridtolerance="10"
     guidetolerance="10"
     inkscape:pageopacity="0"
     inkscape:pageshadow="2"
     inkscape:window-width="640"
     inkscape:window-height="480"
     id="namedview4676"
     showgrid="false"
     inkscape:zoom="0.35201238"
     inkscape:cx="467.22394"
     inkscape:cy="229.07866"
     inkscape:current-layer="svg4674" />
  <rect
     y="0"
     x="0"
     height="512"
     width="1615"
     id="background"
     style="fill:#ffffff" />
  <g
     id="g6156"
     inkscape:label="myelin"
     style="display:inline">
    <path
       sodipodi:nodetypes="csssccsssccsssssc"
       inkscape:connector-curvature="0"
       inkscape:original-d="m 387.12279,245.72722 c 7.77646,0.19499 14.5424,-0.13578 18.05199,-0.14634 5.64292,-0.017 11.29791,-0.0146 16.96057,-0.0132 5.66266,0.001 11.33302,0.009 17.00672,0.0194 2.83684,0.005 0,0 8.51248,0.0199 5.37097,0.0411 5.37018,0.029 9.39093,0.22916 3.75841,0.87203 0.7085,0.55899 4.4669,1.43102 3.36087,0.77978 1.63406,1.09941 2.34028,2.184 1.51529,2.32712 1.53214,5.20265 -0.0228,7.50343 -0.73491,1.08737 -5.14955,2.66253 -6.52333,2.9547 -7.49059,0.5316 -14.1172,0.0335 -18.62001,-0.0178 -5.69473,-0.0629 -11.28902,-0.14911 -16.87966,-0.21168 -5.59064,-0.0626 -11.17764,-0.10144 -16.8578,-0.0699 -5.68015,0.0317 -5.38852,-0.007 -17.81003,-0.16505 -2.81067,-0.0356 -5.05716,0.20385 -6.85825,-1.95424 -2.25531,-2.70235 -3.15666,-9.01879 0.0295,-10.27802 3.63924,-1.43827 6.81249,-1.48544 6.81249,-1.48544 z"
       inkscape:path-effect="#path-effect4190"
       id="path4188"
       d="m 387.12279,245.72722 c 6.01709,-0.0743 12.03449,-0.12305 18.05199,-0.14634 5.65349,-0.0219 11.30704,-0.0213 16.96057,-0.0132 5.66891,0.008 11.33781,0.0237 17.00672,0.0194 2.83752,-0.002 5.67511,-0.009 8.51248,0.0199 3.13118,0.0322 6.26191,0.10859 9.39093,0.22916 1.57628,0.10022 3.12582,0.59664 4.4669,1.43102 0.91254,0.56776 1.73436,1.29634 2.34028,2.184 0.74873,1.09688 1.15,2.42566 1.14285,3.7537 -0.007,1.32804 -0.42135,2.64984 -1.16565,3.74973 -0.70395,1.04025 -1.70022,1.8804 -2.84437,2.39864 -1.14416,0.51824 -2.43275,0.713 -3.67896,0.55606 -6.20658,0.0441 -12.41352,0.0382 -18.62001,-0.0178 -5.62677,-0.0507 -11.25308,-0.14264 -16.87966,-0.21168 -5.61899,-0.0689 -11.23857,-0.11512 -16.8578,-0.0699 -5.9381,0.0478 -11.88282,0.19748 -17.81003,-0.16505 -1.20629,-0.0738 -2.41716,-0.16965 -3.59313,-0.44833 -1.17597,-0.27869 -2.32328,-0.7486 -3.26512,-1.50591 -1.52131,-1.22325 -2.40907,-3.17898 -2.3847,-5.13094 0.0244,-1.95195 0.94282,-3.86421 2.4142,-5.14708 0.91388,-0.79679 2.03104,-1.35848 3.21566,-1.61678 1.18462,-0.25831 2.43421,-0.21268 3.59683,0.13134 z"
       style="display:inline;fill:#ffe680;fill-rule:evenodd;stroke:#000000;stroke-width:1.06666672px;stroke-linecap:butt;stroke-linejoin:miter;stroke-opacity:1" />
    <path
       style="display:inline;fill:#ffe680;fill-rule:evenodd;stroke:#000000;stroke-width:1.06666672px;stroke-linecap:butt;stroke-linejoin:miter;stroke-opacity:1"
       d="m 475.79272,243.50424 c 6.00906,-0.31943 12.01948,-0.61342 18.03103,-0.88193 5.6479,-0.25227 11.29678,-0.48207 16.94594,-0.70441 5.66453,-0.22295 11.32935,-0.43841 16.99338,-0.67373 2.83507,-0.11779 5.67002,-0.24055 8.50622,-0.32704 3.12989,-0.0954 6.26113,-0.14671 9.39247,-0.15376 1.57905,0.0359 3.14754,0.46875 4.52151,1.24778 0.93492,0.53009 1.78575,1.22458 2.42734,2.0868 0.79281,1.06545 1.24791,2.37678 1.29489,3.70401 0.047,1.32723 -0.313,2.66481 -1.01186,3.79412 -0.66097,1.06808 -1.62217,1.94813 -2.74425,2.51257 -1.12209,0.56443 -2.40167,0.81155 -3.65324,0.70553 -6.19963,0.29703 -12.40166,0.54407 -18.60528,0.74108 -5.62416,0.17861 -11.24955,0.31611 -16.87426,0.47643 -5.61713,0.16011 -11.23392,0.34299 -16.84664,0.61719 -5.93122,0.28976 -11.8649,0.68161 -17.80196,0.56094 -1.20829,-0.0246 -2.42206,-0.071 -3.60842,-0.30152 -1.18635,-0.23053 -2.35186,-0.65329 -3.32378,-1.37159 -1.5699,-1.16024 -2.53663,-3.07816 -2.59183,-5.02949 -0.0552,-1.95132 0.78455,-3.89942 2.20243,-5.24119 0.88064,-0.83337 1.97399,-1.44013 3.14709,-1.7465 1.17311,-0.30636 2.42352,-0.3117 3.5992,-0.0154 z"
       id="path4198"
       inkscape:path-effect="#path-effect4200"
       inkscape:original-d="m 475.79272,243.50424 c 7.77795,-0.1221 14.52479,-0.72834 18.03103,-0.88193 5.63754,-0.24696 11.28793,-0.47503 16.94594,-0.70441 5.65799,-0.22978 11.32397,-0.4529 16.99338,-0.67373 2.83468,-0.11062 0,0 8.50622,-0.32704 5.36819,-0.17783 5.3669,-0.18989 9.39247,-0.15376 3.79083,0.71813 0.73069,0.52965 4.52151,1.24778 3.38986,0.64216 1.67751,1.0319 2.42734,2.0868 1.60888,2.26344 1.7429,5.13589 0.28303,7.49813 -0.68999,1.11642 -5.03676,2.87019 -6.39749,3.2181 -7.46271,0.83644 -14.10411,0.60883 -18.60528,0.74108 -5.69255,0.16924 -11.28571,0.31109 -16.87426,0.47643 -5.58855,0.16529 -11.17248,0.35418 -16.84664,0.61719 -5.67414,0.26318 -5.38432,0.21262 -17.80196,0.56094 -2.80979,0.079 -5.04465,0.40979 -6.9322,-1.67311 -2.36357,-2.60819 -3.52159,-8.88264 -0.3894,-10.27068 3.57759,-1.58539 6.74629,-1.76185 6.74629,-1.76185 z"
       inkscape:connector-curvature="0"
       sodipodi:nodetypes="csssccsssccsssssc" />
    <path
       sodipodi:nodetypes="csssccsssccsssssc"
       inkscape:connector-curvature="0"
       inkscape:original-d="m 564.97434,241.8568 c 7.77646,0.19499 14.5424,-0.13578 18.05199,-0.14634 5.64292,-0.017 11.29791,-0.0146 16.96056,-0.0132 5.66267,0.001 11.33303,0.009 17.00673,0.0194 2.83684,0.005 0,0 8.51248,0.0199 5.37097,0.0411 5.37018,0.029 9.39093,0.22916 3.75841,0.87203 0.7085,0.55899 4.4669,1.43102 3.36086,0.77978 1.63406,1.09941 2.34028,2.184 1.51529,2.32712 1.53214,5.20265 -0.0228,7.50343 -0.73491,1.08737 -5.14955,2.66253 -6.52333,2.9547 -7.49059,0.5316 -14.1172,0.0335 -18.62001,-0.0178 -5.69473,-0.0629 -11.28902,-0.14911 -16.87966,-0.21168 -5.59064,-0.0626 -11.17764,-0.10144 -16.8578,-0.0699 -5.68015,0.0317 -5.38852,-0.007 -17.81003,-0.16505 -2.81068,-0.0356 -5.05716,0.20385 -6.85825,-1.95424 -2.25532,-2.70235 -3.15666,-9.01879 0.0296,-10.27802 3.63924,-1.43827 6.81249,-1.48544 6.81249,-1.48544 z"
       inkscape:path-effect="#path-effect4204"
       id="path4202"
       d="m 564.97434,241.8568 c 6.01709,-0.0743 12.03449,-0.12305 18.05199,-0.14634 5.65349,-0.0219 11.30704,-0.0213 16.96056,-0.0132 5.66891,0.008 11.33782,0.0237 17.00673,0.0194 2.83752,-0.002 5.67511,-0.009 8.51248,0.0199 3.13118,0.0322 6.26191,0.10859 9.39093,0.22916 1.57628,0.10022 3.12582,0.59664 4.4669,1.43102 0.91254,0.56776 1.73436,1.29634 2.34028,2.184 0.74873,1.09688 1.15,2.42566 1.14285,3.7537 -0.007,1.32804 -0.42135,2.64984 -1.16565,3.74973 -0.70395,1.04025 -1.70022,1.8804 -2.84437,2.39864 -1.14416,0.51824 -2.43275,0.713 -3.67896,0.55606 -6.20658,0.0441 -12.41352,0.0382 -18.62001,-0.0178 -5.62677,-0.0508 -11.25308,-0.14264 -16.87966,-0.21168 -5.61899,-0.069 -11.23857,-0.11512 -16.8578,-0.0699 -5.9381,0.0478 -11.88282,0.19747 -17.81003,-0.16505 -1.20629,-0.0738 -2.41716,-0.16964 -3.59313,-0.44833 -1.17597,-0.27868 -2.32329,-0.7486 -3.26512,-1.50591 -1.5213,-1.22326 -2.40905,-3.179 -2.38465,-5.13096 0.0244,-1.95196 0.94286,-3.8642 2.41425,-5.14706 0.91388,-0.79678 2.03104,-1.35847 3.21566,-1.61677 1.18462,-0.2583 2.4342,-0.21268 3.59683,0.13133 z"
       style="display:inline;fill:#ffe680;fill-rule:evenodd;stroke:#000000;stroke-width:1.06666672px;stroke-linecap:butt;stroke-linejoin:miter;stroke-opacity:1" />
    <path
       style="display:inline;fill:#ffe680;fill-rule:evenodd;stroke:#000000;stroke-width:1.06666672px;stroke-linecap:butt;stroke-linejoin:miter;stroke-opacity:1"
       d="m 654.233,242.43742 c 6.01709,-0.0743 12.03449,-0.12305 18.05199,-0.14634 5.65349,-0.0219 11.30704,-0.0213 16.96056,-0.0132 5.66891,0.008 11.33781,0.0237 17.00672,0.0194 2.83752,-0.002 5.67511,-0.009 8.51248,0.0199 3.13118,0.0322 6.26191,0.10859 9.39094,0.22916 1.57628,0.10022 3.12582,0.59664 4.4669,1.43102 0.91254,0.56776 1.73436,1.29634 2.34028,2.184 0.74873,1.09688 1.15,2.42566 1.14285,3.7537 -0.007,1.32804 -0.42135,2.64984 -1.16565,3.74973 -0.70395,1.04025 -1.70022,1.8804 -2.84437,2.39864 -1.14416,0.51824 -2.43275,0.713 -3.67896,0.55606 -6.20658,0.0441 -12.41352,0.0382 -18.62001,-0.0178 -5.62677,-0.0507 -11.25308,-0.14264 -16.87966,-0.21168 -5.61899,-0.069 -11.23857,-0.11512 -16.8578,-0.0699 -5.9381,0.0478 -11.88282,0.19747 -17.81003,-0.16505 -1.20629,-0.0738 -2.41716,-0.16964 -3.59313,-0.44833 -1.17597,-0.27868 -2.32329,-0.7486 -3.26512,-1.50591 -1.5213,-1.22326 -2.40905,-3.179 -2.38465,-5.13096 0.0244,-1.95196 0.94286,-3.8642 2.41425,-5.14706 0.91388,-0.79678 2.03104,-1.35847 3.21566,-1.61677 1.18462,-0.2583 2.4342,-0.21268 3.59683,0.13133 z"
       id="path4206"
       inkscape:path-effect="#path-effect4208"
       inkscape:original-d="m 654.233,242.43742 c 7.77646,0.19499 14.5424,-0.13578 18.05199,-0.14634 5.64292,-0.017 11.29791,-0.0146 16.96056,-0.0132 5.66267,10e-4 11.33303,0.009 17.00672,0.0194 2.83685,0.005 0,0 8.51248,0.0199 5.37098,0.0411 5.37019,0.029 9.39094,0.22916 3.75841,0.87203 0.7085,0.55899 4.4669,1.43102 3.36086,0.77978 1.63406,1.09941 2.34028,2.184 1.51529,2.32712 1.53214,5.20265 -0.0228,7.50343 -0.73491,1.08737 -5.14955,2.66253 -6.52333,2.9547 -7.49059,0.5316 -14.1172,0.0335 -18.62001,-0.0178 -5.69473,-0.0629 -11.28902,-0.14911 -16.87966,-0.21168 -5.59064,-0.0626 -11.17764,-0.10144 -16.8578,-0.0699 -5.68015,0.0317 -5.38852,-0.007 -17.81003,-0.16505 -2.81068,-0.0356 -5.05716,0.20385 -6.85825,-1.95424 -2.25532,-2.70235 -3.15666,-9.01879 0.0296,-10.27802 3.63924,-1.43827 6.81249,-1.48544 6.81249,-1.48544 z"
       inkscape:connector-curvature="0"
       sodipodi:nodetypes="csssccsssccsssssc" />
    <path
       sodipodi:nodetypes="csssccsssccsssssc"
       inkscape:connector-curvature="0"
       inkscape:original-d="m 743.69967,240.43742 c 7.77646,0.19499 14.5424,-0.13578 18.05199,-0.14634 5.64292,-0.017 11.29791,-0.0146 16.96056,-0.0132 5.66267,10e-4 11.33303,0.009 17.00672,0.0194 2.83685,0.005 0,0 8.51248,0.0199 5.37098,0.0411 5.37019,0.029 9.39094,0.22916 3.75841,0.87203 0.7085,0.55899 4.4669,1.43102 3.36086,0.77978 1.63406,1.09941 2.34028,2.184 1.51529,2.32712 1.53214,5.20265 -0.0228,7.50343 -0.73491,1.08737 -5.14955,2.66253 -6.52333,2.9547 -7.49059,0.5316 -14.1172,0.0335 -18.62001,-0.0178 -5.69473,-0.0629 -11.28902,-0.14911 -16.87966,-0.21168 -5.59064,-0.0626 -11.17764,-0.10144 -16.8578,-0.0699 -5.68015,0.0317 -5.38852,-0.007 -17.81003,-0.16505 -2.81068,-0.0356 -5.05716,0.20385 -6.85825,-1.95424 -2.25532,-2.70235 -3.15666,-9.01879 0.0295,-10.27802 3.63924,-1.43827 6.81249,-1.48544 6.81249,-1.48544 z"
       inkscape:path-effect="#path-effect4212"
       id="path4210"
       d="m 743.69967,240.43742 c 6.01709,-0.0743 12.03449,-0.12305 18.05199,-0.14634 5.65349,-0.0219 11.30704,-0.0213 16.96056,-0.0132 5.66891,0.008 11.33781,0.0237 17.00672,0.0194 2.83752,-0.002 5.67511,-0.009 8.51248,0.0199 3.13118,0.0322 6.26191,0.10859 9.39094,0.22916 1.57628,0.10022 3.12582,0.59664 4.4669,1.43102 0.91254,0.56776 1.73436,1.29634 2.34028,2.184 0.74873,1.09688 1.15,2.42566 1.14285,3.7537 -0.007,1.32804 -0.42135,2.64984 -1.16565,3.74973 -0.70395,1.04025 -1.70022,1.8804 -2.84437,2.39864 -1.14416,0.51824 -2.43275,0.713 -3.67896,0.55606 -6.20658,0.0441 -12.41352,0.0382 -18.62001,-0.0178 -5.62677,-0.0507 -11.25308,-0.14264 -16.87966,-0.21168 -5.61899,-0.069 -11.23857,-0.11512 -16.8578,-0.0699 -5.9381,0.0478 -11.88282,0.19748 -17.81003,-0.16505 -1.20629,-0.0738 -2.41716,-0.16965 -3.59313,-0.44833 -1.17597,-0.27869 -2.32328,-0.7486 -3.26512,-1.50591 -1.52131,-1.22325 -2.40907,-3.17898 -2.3847,-5.13094 0.0244,-1.95195 0.94282,-3.86421 2.4142,-5.14708 0.91388,-0.79679 2.03104,-1.35848 3.21566,-1.61678 1.18462,-0.25831 2.43421,-0.21268 3.59683,0.13134 z"
       style="display:inline;fill:#ffe680;fill-rule:evenodd;stroke:#000000;stroke-width:1.06666672px;stroke-linecap:butt;stroke-linejoin:miter;stroke-opacity:1" />
    <path
       style="display:inline;fill:#ffe680;fill-rule:evenodd;stroke:#000000;stroke-width:1.06666672px;stroke-linecap:butt;stroke-linejoin:miter;stroke-opacity:1"
       d="m 833.033,240.43742 c 6.01709,-0.0743 12.03449,-0.12305 18.05199,-0.14634 5.65349,-0.0219 11.30704,-0.0213 16.96057,-0.0132 5.66891,0.008 11.33781,0.0237 17.00672,0.0194 2.83752,-0.002 5.67511,-0.009 8.51248,0.0199 3.13118,0.0322 6.26191,0.10859 9.39093,0.22916 1.57628,0.10022 3.12583,0.59663 4.46691,1.43102 0.91254,0.56776 1.73436,1.29634 2.34027,2.184 0.74873,1.09688 1.15,2.42566 1.14285,3.7537 -0.007,1.32804 -0.42135,2.64984 -1.16565,3.74973 -0.70395,1.04025 -1.70022,1.8804 -2.84437,2.39864 -1.14416,0.51824 -2.43275,0.713 -3.67896,0.55606 -6.20658,0.0441 -12.41352,0.0382 -18.62001,-0.0178 -5.62677,-0.0507 -11.25308,-0.14264 -16.87966,-0.21168 -5.61899,-0.069 -11.23857,-0.11512 -16.85781,-0.0699 -5.9381,0.0478 -11.88281,0.19748 -17.81002,-0.16505 -1.20629,-0.0738 -2.41716,-0.16965 -3.59313,-0.44833 -1.17597,-0.27869 -2.32328,-0.7486 -3.26512,-1.50591 -1.52131,-1.22325 -2.40907,-3.17898 -2.3847,-5.13094 0.0244,-1.95195 0.94282,-3.86421 2.4142,-5.14708 0.91388,-0.79679 2.03104,-1.35848 3.21566,-1.61678 1.18462,-0.25831 2.43421,-0.21268 3.59683,0.13134 z"
       id="path4214"
       inkscape:path-effect="#path-effect4216"
       inkscape:original-d="m 833.033,240.43742 c 7.77646,0.19499 14.5424,-0.13578 18.05199,-0.14634 5.64293,-0.017 11.29791,-0.0146 16.96057,-0.0132 5.66267,10e-4 11.33302,0.009 17.00672,0.0194 2.83684,0.005 0,0 8.51248,0.0199 5.37098,0.0411 5.37019,0.029 9.39093,0.22916 3.75841,0.87203 0.70851,0.55899 4.46691,1.43102 3.36086,0.77978 1.63405,1.09941 2.34027,2.184 1.5153,2.32712 1.53214,5.20265 -0.0228,7.50343 -0.73492,1.08737 -5.14955,2.66253 -6.52333,2.9547 -7.49059,0.5316 -14.11721,0.0335 -18.62001,-0.0178 -5.69473,-0.0629 -11.28903,-0.14911 -16.87966,-0.21168 -5.59065,-0.0626 -11.17765,-0.10144 -16.85781,-0.0699 -5.68015,0.0317 -5.38852,-0.007 -17.81002,-0.16505 -2.81068,-0.0356 -5.05717,0.20385 -6.85825,-1.95424 -2.25532,-2.70235 -3.15667,-9.01879 0.0295,-10.27802 3.63925,-1.43827 6.81249,-1.48544 6.81249,-1.48544 z"
       inkscape:connector-curvature="0"
       sodipodi:nodetypes="csssccsssccsssssc" />
    <path
       style="display:inline;fill:#ffe680;fill-rule:evenodd;stroke:#000000;stroke-width:1.06666672px;stroke-linecap:butt;stroke-linejoin:miter;stroke-opacity:1"
       d="m 1011.5644,252.42831 c 5.9837,0.63766 11.9646,1.30066 17.9427,1.98899 5.6164,0.64668 11.2302,1.31572 16.8431,1.99215 5.6282,0.67828 11.2555,1.364 16.8852,2.02998 2.8179,0.33335 5.6364,0.66176 8.4504,1.02619 3.1054,0.40217 6.2052,0.84818 9.298,1.33785 1.5533,0.28589 3.0333,0.96203 4.2663,1.94911 0.839,0.67166 1.5689,1.4923 2.0656,2.44537 0.6138,1.17771 0.8551,2.54462 0.691,3.8625 -0.1642,1.31787 -0.7318,2.58142 -1.6009,3.58558 -0.822,0.94971 -1.9106,1.66617 -3.108,2.0455 -1.1974,0.37932 -2.5,0.42038 -3.7189,0.11722 -6.1683,-0.69001 -12.331,-1.42975 -18.4873,-2.21913 -5.5813,-0.71565 -11.1573,-1.47209 -16.7363,-2.20588 -5.5714,-0.7328 -11.1461,-1.44306 -16.7313,-2.06252 -5.9021,-0.65461 -11.8228,-1.20881 -17.6655,-2.26958 -1.1891,-0.21589 -2.3801,-0.45424 -3.5149,-0.87001 -1.1348,-0.41577 -2.2185,-1.01803 -3.0642,-1.88138 -1.366,-1.39453 -2.0163,-3.4415 -1.7614,-5.37688 0.255,-1.93539 1.3931,-3.72565 3.0058,-4.82557 1.0017,-0.68317 2.1774,-1.10885 3.3843,-1.22528 1.2069,-0.11643 2.4423,0.0766 3.5561,0.55571 z"
       id="path6119"
       inkscape:path-effect="#path-effect6121"
       inkscape:original-d="m 1011.5644,252.42831 c 7.6988,1.11304 14.4564,1.58453 17.9427,1.98899 5.6053,0.65028 11.2204,1.32126 16.8431,1.99215 5.6229,0.67049 11.2525,1.34884 16.8852,2.02998 2.8163,0.34036 0,0 8.4504,1.02619 5.3284,0.67583 5.3291,0.66372 9.298,1.33785 3.6289,1.31027 0.6374,0.63884 4.2663,1.94911 3.2451,1.17166 1.4926,1.28489 2.0656,2.44537 1.2296,2.48995 0.9064,5.34731 -0.9099,7.44808 -0.8583,0.99286 -5.4282,2.03503 -6.8269,2.16272 -7.5009,-0.35774 -14.0222,-1.63582 -18.4873,-2.21913 -5.6474,-0.73575 -11.1922,-1.48277 -16.7363,-2.20588 -5.544,-0.72315 -11.0872,-1.42227 -16.7313,-2.06252 -5.644,-0.64009 -5.3499,-0.64404 -17.6655,-2.26958 -2.7868,-0.36766 -5.0459,-0.3955 -6.5791,-2.75139 -1.92,-2.95005 -2.0683,-9.32875 1.2444,-10.20245 3.7838,-0.99791 6.9404,-0.66957 6.9404,-0.66957 z"
       inkscape:connector-curvature="0"
       sodipodi:nodetypes="csssccsssccsssssc" />
    <path
       sodipodi:nodetypes="csssccsssccsssssc"
       inkscape:connector-curvature="0"
       inkscape:original-d="m 923.56437,242.42831 c 7.69887,1.11304 14.45646,1.58453 17.94268,1.98899 5.60536,0.65028 11.2204,1.32126 16.84317,1.99215 5.62284,0.67049 11.25247,1.34884 16.88515,2.02998 2.81635,0.34036 0,0 8.45042,1.02619 5.32845,0.67583 5.3291,0.66372 9.29797,1.33785 3.62895,1.31027 0.63744,0.63884 4.26638,1.94911 3.24506,1.17166 1.49259,1.28489 2.06561,2.44537 1.22955,2.48995 0.90635,5.34731 -0.90997,7.44808 -0.85831,0.99286 -5.42819,2.03503 -6.82688,2.16272 -7.5009,-0.35774 -14.02215,-1.63582 -18.48731,-2.21913 -5.64735,-0.73575 -11.19222,-1.48277 -16.73624,-2.20588 -5.54403,-0.72315 -11.08726,-1.42227 -16.7313,-2.06252 -5.64406,-0.64009 -5.3499,-0.64404 -17.66559,-2.26958 -2.78676,-0.36766 -5.04581,-0.3955 -6.5791,-2.75139 -1.92,-2.95005 -2.06823,-9.32875 1.24447,-10.20245 3.78376,-0.99791 6.94033,-0.66957 6.94033,-0.66957 z"
       inkscape:path-effect="#path-effect4221"
       id="path4219"
       d="m 923.56437,242.42831 c 5.98367,0.63766 11.96463,1.30067 17.94268,1.98899 5.61642,0.64668 11.23025,1.31571 16.84317,1.99215 5.62819,0.67828 11.25549,1.364 16.88515,2.02998 2.81787,0.33335 5.6364,0.66176 8.45042,1.02619 3.10541,0.40217 6.20515,0.84818 9.29797,1.33785 1.55337,0.28588 3.03336,0.96202 4.26638,1.94911 0.839,0.67166 1.56891,1.4923 2.06561,2.44537 0.61378,1.17772 0.85505,2.54463 0.69095,3.86251 -0.16416,1.31787 -0.73177,2.58141 -1.60092,3.58557 -0.82201,0.9497 -1.91062,1.66615 -3.10801,2.04547 -1.1974,0.37933 -2.49996,0.4204 -3.71887,0.11725 -6.16827,-0.69001 -12.33097,-1.42975 -18.48731,-2.21913 -5.58131,-0.71565 -11.15729,-1.47209 -16.73624,-2.20588 -5.57143,-0.7328 -11.14613,-1.44306 -16.7313,-2.06252 -5.9021,-0.65461 -11.82281,-1.20881 -17.66559,-2.26958 -1.1891,-0.21588 -2.38015,-0.45424 -3.51492,-0.87001 -1.13478,-0.41576 -2.21849,-1.01803 -3.06418,-1.88138 -1.36601,-1.39454 -2.01633,-3.44151 -1.76134,-5.3769 0.25498,-1.93538 1.39307,-3.72564 3.00581,-4.82555 1.00167,-0.68315 2.17741,-1.10882 3.38426,-1.22525 1.20685,-0.11643 2.44227,0.0766 3.55607,0.55568 z"
       style="display:inline;fill:#ffe680;fill-rule:evenodd;stroke:#000000;stroke-width:1.06666672px;stroke-linecap:butt;stroke-linejoin:miter;stroke-opacity:1" />
    <path
       sodipodi:nodetypes="csssccsssccsssssc"
       inkscape:connector-curvature="0"
       inkscape:original-d="m 1098.6029,262.85552 c 7.7772,0.16281 14.5417,-0.19596 18.0513,-0.22105 5.6427,-0.0403 11.2978,-0.0614 16.9603,-0.0834 5.6627,-0.0224 11.333,-0.0379 17.0067,-0.051 2.8368,-0.007 0,0 8.5125,-0.0153 5.371,0.0189 5.3702,0.007 9.3918,0.19029 3.7619,0.85647 0.7108,0.55606 4.4727,1.41253 3.3641,0.76585 1.6386,1.09263 2.3493,2.1743 1.5249,2.32081 1.5537,5.19625 0.01,7.50344 -0.7304,1.09041 -5.1385,2.68383 -6.511,2.98168 -7.4884,0.5626 -14.117,0.0919 -18.62,0.0593 -5.695,-0.0393 -11.2895,-0.10239 -16.8804,-0.1418 -5.5908,-0.0395 -11.1779,-0.0552 -16.858,-1.3e-4 -5.6799,0.0552 -5.3885,0.0153 -17.8104,-0.0914 -2.8109,-0.024 -5.0564,0.22478 -6.8663,-1.92584 -2.2665,-2.693 -3.194,-9.00564 -0.013,-10.27805 3.6333,-1.45332 6.8063,-1.51362 6.8063,-1.51362 z"
       inkscape:path-effect="#path-effect6125"
       id="path6123"
       d="m 1098.6029,262.85552 c 6.0168,-0.0992 12.0339,-0.17285 18.0513,-0.22105 5.6533,-0.0453 11.3068,-0.0681 16.9603,-0.0834 5.6689,-0.0154 11.3378,-0.0233 17.0067,-0.051 2.8375,-0.0139 5.675,-0.0327 8.5125,-0.0153 3.1313,0.0192 6.2623,0.0827 9.3918,0.19029 1.5767,0.0937 3.1282,0.58367 4.4727,1.41253 0.9149,0.564 1.7396,1.28921 2.3493,2.1743 0.7533,1.09369 1.1604,2.42065 1.1591,3.74869 -0,1.32804 -0.4096,2.65165 -1.1491,3.75475 -0.6994,1.04334 -1.6922,1.88776 -2.8342,2.41075 -1.1421,0.52299 -2.4299,0.72297 -3.6768,0.57093 -6.2064,0.0698 -12.4133,0.0896 -18.62,0.0593 -5.6269,-0.0275 -11.2536,-0.096 -16.8804,-0.1418 -5.6192,-0.0457 -11.239,-0.0686 -16.858,-1.3e-4 -5.9378,0.0724 -11.8818,0.24659 -17.8104,-0.0914 -1.2066,-0.0688 -2.4178,-0.15964 -3.595,-0.43346 -1.1771,-0.27381 -2.3263,-0.73897 -3.2713,-1.49238 -1.5264,-1.21695 -2.4222,-3.16899 -2.4059,-5.12103 0.016,-1.95204 0.9268,-3.86808 2.3929,-5.15702 0.9106,-0.80056 2.0254,-1.36688 3.2089,-1.63008 1.1836,-0.2632 2.4334,-0.22274 3.5974,0.11646 z"
       style="display:inline;fill:#ffe680;fill-rule:evenodd;stroke:#000000;stroke-width:1.06666672px;stroke-linecap:butt;stroke-linejoin:miter;stroke-opacity:1" />
    <path
       style="display:inline;fill:#ffe680;fill-rule:evenodd;stroke:#000000;stroke-width:1.06666672px;stroke-linecap:butt;stroke-linejoin:miter;stroke-opacity:1"
       d="m 1186.6077,262.93159 c 5.9963,-0.50535 11.9947,-0.9853 17.9951,-1.43983 5.6374,-0.42704 11.2764,-0.83164 16.916,-1.22881 5.6549,-0.39825 11.3104,-0.78904 16.9644,-1.19962 2.8301,-0.20551 5.6598,-0.41599 8.492,-0.59025 3.1254,-0.19231 6.2536,-0.3405 9.3832,-0.44452 1.5794,-0.013 3.1605,0.37104 4.5579,1.10719 0.9509,0.50092 1.8228,1.16876 2.4908,2.01065 0.8255,1.04031 1.3213,2.33674 1.4097,3.66183 0.088,1.3251 -0.2296,2.67327 -0.8929,3.8238 -0.6274,1.0882 -1.5608,1.99774 -2.6649,2.59668 -1.1041,0.59893 -2.3755,0.88545 -3.6298,0.81798 -6.1875,0.48887 -12.3789,0.92785 -18.5735,1.31687 -5.6159,0.35268 -11.2344,0.6643 -16.8514,0.99872 -5.6095,0.33397 -11.2179,0.69071 -16.8195,1.13856 -5.9193,0.47326 -11.838,1.0486 -17.7759,1.11183 -1.2085,0.0129 -2.4231,0.004 -3.616,-0.18964 -1.193,-0.19368 -2.371,-0.58015 -3.3647,-1.26801 -1.6051,-1.11107 -2.6307,-2.99815 -2.7463,-4.94683 -0.1156,-1.94868 0.6634,-3.92184 2.0391,-5.30687 0.8544,-0.86024 1.9284,-1.50056 3.0915,-1.8431 1.1631,-0.34255 2.4127,-0.3866 3.597,-0.1268 z"
       id="path6127"
       inkscape:path-effect="#path-effect6129"
       inkscape:original-d="m 1186.6077,262.93159 c 7.7704,-0.36288 14.4952,-1.17774 17.9951,-1.43983 5.6271,-0.42135 11.2679,-0.82438 16.916,-1.22881 5.6482,-0.40484 11.3045,-0.80331 16.9644,-1.19962 2.8298,-0.1986 0,0 8.492,-0.59025 5.36,-0.34393 5.3584,-0.35575 9.3832,-0.44452 3.8112,0.60041 0.7467,0.50678 4.5579,1.10719 3.4082,0.53687 1.7087,0.97945 2.4908,2.01065 1.6782,2.21251 1.9011,5.07944 0.5168,7.48563 -0.6551,1.13725 -4.9455,3.02478 -6.2947,3.41466 -7.4333,1.06712 -14.0786,1.04523 -18.5735,1.31687 -5.6846,0.34546 -11.2706,0.6604 -16.8514,0.99872 -5.5807,0.33823 -11.1561,0.69995 -16.8195,1.13856 -5.6632,0.43873 -5.3752,0.37924 -17.7759,1.11183 -2.8061,0.16592 -5.0297,0.56581 -6.9807,-1.45765 -2.4432,-2.53376 -3.795,-8.76933 -0.7072,-10.2537 3.5268,-1.69541 6.6885,-1.9699 6.6885,-1.9699 z"
       inkscape:connector-curvature="0"
       sodipodi:nodetypes="csssccsssccsssssc" />
    <path
       sodipodi:nodetypes="csssccsssccsssssc"
       inkscape:connector-curvature="0"
       inkscape:original-d="m 1275.8483,255.94141 c 7.7776,0.13626 14.5409,-0.2456 18.0504,-0.28266 5.6425,-0.0596 11.2975,-0.1 16.9599,-0.14129 5.6626,-0.0417 11.3328,-0.0766 17.0065,-0.10906 2.8367,-0.0167 0,0 8.5123,-0.0444 5.3711,5.7e-4 5.3702,-0.0113 9.3924,0.15823 3.7649,0.84363 0.7127,0.55363 4.4775,1.39726 3.3668,0.75436 1.6424,1.08703 2.3567,2.16627 1.5329,2.31559 1.5714,5.19091 0.036,7.50336 -0.7267,1.09289 -5.1293,2.70135 -6.5007,3.00389 -7.4865,0.58815 -14.1167,0.14008 -18.6197,0.12285 -5.6951,-0.0199 -11.2898,-0.0639 -16.8808,-0.0842 -5.5909,-0.0204 -11.178,-0.017 -16.8579,0.0574 -5.6797,0.0746 -5.3884,0.0337 -17.8106,-0.0306 -2.811,-0.0144 -5.0556,0.24204 -6.8728,-1.90239 -2.2757,-2.68525 -3.2248,-8.99469 -0.048,-10.27795 3.6283,-1.46571 6.8011,-1.53684 6.8011,-1.53684 z"
       inkscape:path-effect="#path-effect6133"
       id="path6131"
       d="m 1275.8483,255.94141 c 6.0164,-0.1197 12.0332,-0.21392 18.0504,-0.28266 5.6531,-0.0646 11.3065,-0.10666 16.9599,-0.14129 5.6688,-0.0347 11.3377,-0.0619 17.0065,-0.10906 2.8374,-0.0236 5.6748,-0.0521 8.5123,-0.0444 3.1313,0.009 6.2626,0.0613 9.3924,0.15823 1.577,0.0883 3.1302,0.57299 4.4775,1.39726 0.9168,0.56088 1.744,1.28327 2.3567,2.16627 0.7571,1.0911 1.1687,2.41663 1.1721,3.74465 0,1.32803 -0.4004,2.65306 -1.1361,3.75871 -0.6958,1.04575 -1.6857,1.89358 -2.8259,2.42047 -1.1403,0.52689 -2.4274,0.73125 -3.6748,0.58342 -6.2061,0.091 -12.4129,0.13196 -18.6197,0.12285 -5.627,-0.008 -11.2539,-0.0577 -16.8808,-0.0842 -5.6194,-0.0265 -11.2392,-0.0302 -16.8579,0.0574 -5.9375,0.0926 -11.8809,0.28715 -17.8106,-0.0306 -1.2068,-0.0647 -2.4184,-0.15139 -3.5964,-0.42118 -1.178,-0.2698 -2.3289,-0.73103 -3.2764,-1.48121 -1.5305,-1.21174 -2.433,-3.16072 -2.4233,-5.11281 0.01,-1.95208 0.9136,-3.87121 2.3753,-5.16514 0.9078,-0.80366 2.0207,-1.37377 3.2034,-1.64101 1.1826,-0.26724 2.4325,-0.23105 3.5977,0.10417 z"
       style="display:inline;fill:#ffe680;fill-rule:evenodd;stroke:#000000;stroke-width:1.06666672px;stroke-linecap:butt;stroke-linejoin:miter;stroke-opacity:1" />
    <path
       style="display:inline;fill:#ffe680;fill-rule:evenodd;stroke:#000000;stroke-width:1.06666672px;stroke-linecap:butt;stroke-linejoin:miter;stroke-opacity:1"
       d="m 1365.1154,256.97716 c 6.0148,0.18405 12.0287,0.39358 18.0417,0.62858 5.6492,0.22078 11.2975,0.46404 16.9454,0.71475 5.6634,0.25139 11.3264,0.51028 16.9903,0.74929 2.835,0.11963 5.6702,0.23429 8.5037,0.38521 3.1269,0.16655 6.2515,0.37725 9.3725,0.63201 1.5705,0.16772 3.0973,0.73019 4.4013,1.62143 0.8873,0.60643 1.677,1.36966 2.2443,2.28243 0.701,1.12792 1.0453,2.47252 0.9816,3.79902 -0.064,1.3265 -0.5337,2.62948 -1.3242,3.6966 -0.7477,1.00932 -1.7791,1.80613 -2.9444,2.27481 -1.1654,0.46868 -2.4613,0.60782 -3.6996,0.39721 -6.2028,-0.2223 -12.4038,-0.49462 -18.6022,-0.81693 -5.6194,-0.2922 -11.2366,-0.62549 -16.8551,-0.93596 -5.6109,-0.31005 -11.2233,-0.59736 -16.8393,-0.79338 -5.9346,-0.20714 -11.8802,-0.31278 -17.7863,-0.92935 -1.202,-0.12548 -2.4077,-0.27323 -3.5706,-0.60212 -1.1629,-0.3289 -2.289,-0.84763 -3.1975,-1.64467 -1.4674,-1.28742 -2.2704,-3.27947 -2.1622,-5.22857 0.1081,-1.94911 1.1078,-3.82017 2.6329,-5.0387 0.9472,-0.75683 2.0875,-1.27005 3.2821,-1.47727 1.1946,-0.20722 2.4411,-0.10801 3.5879,0.28559 z"
       id="path6135"
       inkscape:path-effect="#path-effect6137"
       inkscape:original-d="m 1365.1154,256.97716 c 7.7608,0.52857 14.5348,0.48849 18.0417,0.62858 5.6383,0.22522 11.2881,0.47024 16.9454,0.71475 5.6575,0.24411 11.3222,0.49539 16.9903,0.74929 2.834,0.12647 0,0 8.5037,0.38521 5.3643,0.27162 5.364,0.25972 9.3725,0.63201 3.7175,1.03254 0.6838,0.58889 4.4013,1.62143 3.3244,0.9233 1.5854,1.16852 2.2443,2.28243 1.4141,2.39 1.3075,5.2636 -0.3426,7.49562 -0.781,1.05483 -5.2591,2.43907 -6.644,2.67202 -7.5067,0.2096 -14.1058,-0.57248 -18.6022,-0.81693 -5.6869,-0.30727 -11.2722,-0.63354 -16.8551,-0.93596 -5.5827,-0.30251 -11.1629,-0.58106 -16.8393,-0.79338 -5.6762,-0.21211 -5.3832,-0.23826 -17.7863,-0.92935 -2.8067,-0.15623 -5.0614,-0.0134 -6.7681,-2.24679 -2.1373,-2.79667 -2.7668,-9.14596 0.4707,-10.26727 3.6977,-1.28075 6.87,-1.19168 6.87,-1.19168 z"
       inkscape:connector-curvature="0"
       sodipodi:nodetypes="csssccsssccsssssc" />
    <path
       sodipodi:nodetypes="csssccsssccsssssc"
       inkscape:connector-curvature="0"
       inkscape:original-d="m 1452.0715,261.52431 c 5.8131,1.55995 10.9229,2.42513 13.5567,3.03227 4.2346,0.97612 8.4766,1.97337 12.7242,2.97113 4.2478,0.99738 8.5005,2.00281 12.7556,3.0113 2.1275,0.50377 0,0 6.3835,1.51726 4.0249,0.98545 4.0254,0.97363 7.0209,1.87763 2.7295,1.51872 0.4739,0.6743 3.2033,2.19303 2.4409,1.35807 1.1125,1.36853 1.5304,2.55923 0.8969,2.55483 0.613,5.38524 -0.789,7.37437 -0.6634,0.93988 -4.1374,1.71199 -5.1979,1.75759 -5.674,-0.79526 -10.5936,-2.45096 -13.9661,-3.29357 -4.2655,-1.06384 -8.453,-2.1329 -12.6405,-3.17804 -4.1871,-1.04522 -8.3743,-2.06636 -12.6385,-3.0348 -4.2642,-0.9682 -4.0415,-0.95495 -13.3429,-3.29589 -2.105,-0.52958 -3.8149,-0.68937 -4.9433,-3.12825 -1.4134,-3.054 -1.4384,-9.42343 1.0817,-10.10099 2.8783,-0.7739 5.2635,-0.26198 5.2635,-0.26198 z"
       inkscape:path-effect="#path-effect6141"
       id="path6139"
       d="m 1452.0715,261.52431 c 4.5243,0.98634 9.0433,1.99712 13.5567,3.03227 4.2453,0.97366 8.4856,1.96887 12.7242,2.97113 4.2515,1.00531 8.5013,2.01771 12.7556,3.0113 2.1298,0.49742 4.2608,0.99015 6.3835,1.51726 2.3513,0.58388 4.6921,1.20989 7.0209,1.87763 1.2307,0.44332 2.3448,1.20605 3.2033,2.19303 0.6554,0.75351 1.1605,1.63158 1.5304,2.55923 0.4816,1.20762 0.7377,2.51749 0.6358,3.81358 -0.102,1.29609 -0.5751,2.57677 -1.4248,3.56079 -0.6269,0.726 -1.4506,1.28031 -2.3593,1.58755 -0.9086,0.30725 -1.8998,0.36662 -2.8386,0.17004 -4.6647,-1.0578 -9.3203,-2.15571 -13.9661,-3.29357 -4.2199,-1.03355 -8.4317,-2.10005 -12.6405,-3.17804 -4.1975,-1.07511 -8.3942,-2.16214 -12.6385,-3.0348 -4.4939,-0.924 -9.0732,-1.61687 -13.3429,-3.29589 -1.8321,-0.72046 -3.6396,-1.6531 -4.9433,-3.12825 -1.2807,-1.44915 -2.0005,-3.4112 -1.8352,-5.33808 0.083,-0.96345 0.3815,-1.90958 0.8817,-2.7371 0.5003,-0.82752 1.2024,-1.53433 2.0352,-2.02581 1.5734,-0.9286 3.6056,-1.02975 5.2635,-0.26198 z"
       style="display:inline;fill:#ffe680;fill-rule:evenodd;stroke:#000000;stroke-width:0.92729217px;stroke-linecap:butt;stroke-linejoin:miter;stroke-opacity:1" />
  </g>
  <path
     d="m 215.849,20.25 c -1.738,1.417 -5.832,10.735 -6.439,14.654 -0.222,1.428 -0.823,4.171 -1.337,6.096 -3.295,12.345 -4.302,15.705 -5.206,17.355 -0.559,1.021 -1.69,4.846 -2.514,8.5 -0.824,3.655 -1.966,8.445 -2.537,10.645 -1.43,5.508 -1.687,10.862 -0.733,15.276 2.331,10.78 3.968,17.175 5.431,21.224 1.859,5.143 2.128,13.522 0.497,15.487 -0.808,0.974 -4.096,1.298 -12.307,1.214 -10.069,-0.104 -18.27,1.021 -24.204,3.318 -1.1,0.426 -4.25,1.672 -7,2.768 -2.75,1.096 -7.475,2.509 -10.5,3.139 -8.474,1.764 -21.092,7.527 -21.839,9.973 -0.352,1.152 1.101,1.304 8.221,0.86 4.757,-0.297 9.204,-0.98 9.883,-1.519 1.033,-0.819 6.325,-2.209 10.235,-2.688 0.55,-0.067 4.15,-1.097 8,-2.288 3.85,-1.192 8.35,-2.408 10,-2.703 5.971,-1.07 21.317,-1.824 23.903,-1.175 2.82,0.708 10.597,7.185 10.597,8.826 0,0.539 0.826,2.174 1.836,3.634 3.479,5.028 8.909,20.677 10.637,30.654 0.953,5.5 2.117,10.991 2.586,12.202 1.502,3.871 -0.561,16.951 -3.325,21.089 -2.628,3.934 -10.648,12.209 -11.833,12.209 -0.911,0 -4.899,6.75 -4.907,8.307 -0.004,0.656 -0.633,2.394 -1.398,3.861 -0.766,1.468 -1.71,4.618 -2.099,7 -2.147,13.169 -4.673,18.888 -9.576,21.678 -1.6,0.91 -2.911,1.991 -2.915,2.404 -0.003,0.413 -0.631,0.75 -1.394,0.75 -0.763,0 -3.636,1.547 -6.384,3.437 -4.544,3.125 -5.842,3.494 -14.309,4.062 -5.121,0.344 -9.665,0.844 -10.097,1.111 -0.432,0.267 -4.002,0.495 -7.934,0.508 -6.731,0.021 -7.344,-0.168 -10.518,-3.244 -1.853,-1.796 -3.37,-3.669 -3.37,-4.162 0,-0.493 -0.92,-2.092 -2.043,-3.554 -4.9,-6.374 -17.957,-27.499 -17.957,-29.053 0,-0.401 -0.887,-2.564 -1.97,-4.807 -4.395,-9.096 -5.516,-20.234 -3.756,-37.298 0.425,-4.125 1.035,-9.993 1.355,-13.04 0.457,-4.356 0.241,-5.823 -1.011,-6.862 -3.078,-2.554 -4.196,-0.605 -5.475,9.547 -1.061,8.424 -1.683,12.607 -2.653,17.855 -0.102,0.55 -0.254,2.274 -0.338,3.831 L 99,214.162 95.455,210.831 c -2.209,-2.076 -3.375,-3.987 -3.096,-5.073 0.268,-1.037 -0.624,-2.68 -2.205,-4.062 -2.758,-2.412 -4.516,-4.785 -6.07,-8.196 -1.18,-2.588 -14.041,-15.036 -16.372,-15.845 -5.405,-1.877 -0.268,7.613 15.342,28.345 11.27,14.968 13.939,18.826 17.36,25.096 1.98,3.628 4.763,9.928 6.184,14 1.421,4.072 5.318,12.731 8.66,19.242 4.548,8.859 5.756,12.035 4.803,12.624 -0.701,0.433 -3.763,1.08 -6.805,1.438 -3.043,0.357 -6.707,1.267 -8.144,2.02 -1.437,0.754 -5.2,2.186 -8.362,3.182 -3.162,0.997 -5.75,2.169 -5.75,2.605 0,0.436 -0.81,0.793 -1.8,0.793 -0.99,0 -2.227,0.394 -2.75,0.877 -0.522,0.482 -5.45,2.767 -10.95,5.078 -5.5,2.311 -10.781,4.617 -11.736,5.124 -2.848,1.51 -7.248,1.05 -9.435,-0.987 -4.482,-4.175 -12.474,-7.108 -34.117,-12.52 -20.757,-5.189 -19.134,-2.38 6.288,10.885 13.091,6.831 22.5,12.525 22.5,13.617 0,1.372 -5.685,4.91 -14.237,8.861 -4.545,2.1 -10.064,5.438 -12.264,7.418 -2.199,1.98 -5.441,4.297 -7.202,5.148 -4.048,1.957 -6.493,4.373 -5.709,5.641 1.452,2.349 5.424,2.82 9.172,1.087 2.057,-0.951 3.965,-1.963 4.24,-2.249 0.275,-0.287 1.625,-1.014 3,-1.617 1.375,-0.603 4.386,-2.619 6.69,-4.48 2.305,-1.861 5.811,-4.508 7.791,-5.883 1.981,-1.375 5.22,-3.738 7.198,-5.25 1.978,-1.512 3.967,-2.75 4.42,-2.75 0.453,0 3.309,-2.025 6.348,-4.5 3.039,-2.475 5.897,-4.5 6.352,-4.5 0.455,0 3.048,-1.064 5.764,-2.364 2.715,-1.3 11.687,-4.256 19.937,-6.569 8.25,-2.313 16.001,-4.852 17.224,-5.642 1.223,-0.79 4.776,-2.102 7.895,-2.914 5.347,-1.393 6.278,-1.339 16.276,0.944 9.463,2.16 15.607,2.706 33.355,2.962 2.613,0.037 4.742,0.521 4.732,1.076 -0.01,0.554 -1.425,3.482 -3.145,6.507 -1.72,3.025 -4.431,7.975 -6.023,11 -1.593,3.025 -3.665,6.656 -4.605,8.069 -0.94,1.414 -3.378,5.075 -5.417,8.137 -2.04,3.063 -4.312,6.181 -5.048,6.931 -0.737,0.75 -2.728,3.393 -4.425,5.874 -1.698,2.482 -4.559,5.632 -6.358,7 -1.798,1.369 -4.837,3.727 -6.753,5.239 -1.916,1.513 -3.848,2.75 -4.294,2.75 -0.446,0 -2.025,1.125 -3.509,2.5 -2.169,2.01 -3.794,2.52 -8.301,2.601 -8.04,0.146 -12.808,0.657 -16.432,1.763 -3.738,1.14 -9.595,2.177 -15.172,2.685 -15.142,1.381 -18.37,1.895 -22.201,3.537 -2.365,1.014 -4.299,2.525 -4.299,3.359 0,1.675 3.946,2.98 8.232,2.722 3.938,-0.237 4.602,-0.241 21.516,-0.126 8.387,0.057 17.765,-0.211 20.841,-0.595 l 5.593,-0.699 -4.397,5.974 c -2.419,3.285 -6.837,8.745 -9.819,12.132 -5.042,5.728 -7.091,8.825 -10.022,15.147 -0.638,1.375 -1.561,3.281 -2.052,4.236 -1.343,2.614 -1.095,3.565 1.111,4.265 1.879,0.596 4.997,-1.334 4.997,-3.094 0,-0.405 1.755,-2.575 3.899,-4.822 2.145,-2.247 8.94,-9.71 15.101,-16.585 7.574,-8.451 13.032,-13.583 16.851,-15.843 7.518,-4.448 10.431,-7.318 15.895,-15.657 2.522,-3.85 6.649,-10.073 9.17,-13.828 2.521,-3.755 5.204,-8.03 5.961,-9.5 0.757,-1.47 2.388,-3.797 3.624,-5.172 2.766,-3.077 11.286,-16.111 13.999,-21.415 2.64,-5.162 7.181,-9.677 13.008,-12.933 5.692,-3.182 7.366,-3.267 12.518,-0.639 4.836,2.468 7.522,7.289 9.462,16.987 0.165,0.825 0.62,4.425 1.011,8 0.663,6.059 2.098,10.148 4.857,13.844 3.16,4.232 12.899,13.06 17.757,16.095 8.742,5.461 9.394,6.792 9.346,19.061 -0.051,12.869 -0.848,19.432 -3.018,24.855 -3.123,7.806 -7.706,9.97 -25.941,12.247 -4.4,0.549 -9.514,1.187 -11.364,1.417 -3.814,0.475 -6.727,1.218 -9.636,2.461 -1.1,0.469 -5.6,1.371 -10,2.004 -7.496,1.077 -14.568,2.628 -24,5.261 -7.396,2.065 -24.5,10.592 -24.5,12.214 0,2.094 3.399,1.969 10.801,-0.395 3.334,-1.065 9.805,-2.66 14.38,-3.544 4.576,-0.884 10.238,-2.038 12.583,-2.564 5.349,-1.199 8.502,-1.222 8.069,-0.06 -0.183,0.493 -2.909,3.755 -6.057,7.25 -11.467,12.729 -18.194,22.602 -17.188,25.224 0.344,0.896 1.11,1.63 1.701,1.63 1.048,0 9.908,-8.737 22.471,-22.16 8.114,-8.669 18.894,-15.911 27.74,-18.634 5.909,-1.819 22.781,-4.895 24.542,-4.474 0.299,0.071 2.483,0.352 4.854,0.625 2.795,0.321 4.811,1.208 5.73,2.52 0.78,1.114 2.084,2.69 2.896,3.502 0.813,0.813 1.478,1.972 1.478,2.577 0,1.95 12.238,14.772 17.5,18.335 11.14,7.544 12.435,10.115 12.476,24.775 0.021,7.53 1.148,17.04 2.618,22.092 0.265,0.911 1.197,1.932 2.071,2.267 3.02,1.159 4.057,-1.114 3.727,-8.176 -0.294,-6.297 1.296,-25.242 2.196,-26.161 0.222,-0.227 3.816,1.252 7.986,3.286 6.128,2.99 8.862,3.74 14.254,3.913 6.506,0.208 6.672,0.151 6.672,-2.285 0,-2.776 -1.683,-3.807 -14.5,-8.885 -10.168,-4.03 -16.721,-7.771 -21.516,-12.287 -2.209,-2.08 -6.068,-5.083 -8.576,-6.673 -4.652,-2.95 -16.088,-16.984 -18.464,-22.657 -3.56,-8.502 -3.681,-23.586 -0.323,-40.382 2.072,-10.368 9.392,-21.01 17.219,-25.036 4.248,-2.185 5.387,-2.326 13.91,-1.727 9.997,0.703 18.922,2.917 27.893,6.921 4.282,1.912 6.599,3.814 9.608,7.887 2.181,2.952 4.303,6.486 4.717,7.852 0.413,1.367 2.925,6.13 5.581,10.585 5.002,8.391 8.221,14.591 14.224,27.4 8.659,18.476 8.633,18.432 12.984,21.132 2.334,1.447 6.268,3.648 8.743,4.89 2.475,1.242 11.475,6.637 20,11.988 8.525,5.351 17.746,10.913 20.492,12.36 5.095,2.684 11.855,3.496 13.047,1.567 0.829,-1.341 -2.126,-4.674 -4.921,-5.551 -1.165,-0.365 -4.453,-2.153 -7.307,-3.974 -2.854,-1.82 -7.109,-4.289 -9.457,-5.486 C 395.757,436.325 378,423.188 378,422.018 c 0,-1.567 12.769,-5.341 22,-6.503 17.4,-2.19 33.537,-5.607 35.433,-7.503 4.672,-4.672 -4.77,-6.288 -17.433,-2.984 -4.675,1.22 -10.75,2.399 -13.5,2.62 -2.75,0.221 -6.125,0.838 -7.5,1.371 -1.375,0.534 -4.75,1.151 -7.5,1.373 -2.75,0.222 -5.675,0.65 -6.5,0.95 -0.825,0.3 -4.875,1.049 -9,1.664 l -7.5,1.119 -3.683,-4.244 c -2.026,-2.334 -4.444,-6.299 -5.374,-8.812 -0.929,-2.513 -4.109,-9.638 -7.066,-15.833 C 347.42,379.04 345,373.815 345,373.624 c 0,-0.191 -1.8,-3.622 -4,-7.624 -2.2,-4.002 -4,-7.502 -4,-7.777 0,-0.54 7.082,0.112 18.906,1.741 4.942,0.681 10.43,0.693 16.5,0.038 16.653,-1.8 16.361,-1.64 32.901,-18.113 13.455,-13.402 15.235,-14.834 19.5,-15.69 5.946,-1.195 20.841,0.619 23.743,2.891 0.577,0.452 3.052,1.129 5.5,1.503 5.868,0.898 7.273,1.696 14.95,8.49 3.575,3.163 9.122,8.066 12.326,10.894 3.929,3.467 6.535,5.041 8,4.833 4.752,-0.677 3.038,-4.08 -8.903,-17.684 -7.474,-8.514 -11.317,-13.632 -10.7,-14.249 0.529,-0.529 6.096,-1.912 12.37,-3.073 6.274,-1.161 11.943,-2.524 12.598,-3.03 3.733,-2.885 -4.02,-6.298 -12.264,-5.399 -6.581,0.718 -14.52,2.597 -16.072,3.805 -1.066,0.829 -4.262,1.492 -18.355,3.808 -3.961,0.651 -6.899,0.529 -10.5,-0.437 -6.907,-1.851 -13.13,-1.258 -19.779,1.888 -5.66,2.677 -9.863,6.564 -19.531,18.061 -1.286,1.529 -11.234,9.885 -12.949,10.877 -5.855,3.385 -38.063,4.495 -45.273,1.561 -8.682,-3.534 -11,-7.708 -10.242,-18.438 0.564,-7.973 0.673,-8.234 7.062,-16.905 7.787,-10.568 13.491,-21.631 14.535,-28.192 1.016,-6.387 5.191,-14.835 9.307,-18.832 4.574,-4.442 13.325,-9.57 17.093,-10.015 1.527,-0.18 2.777,-0.419 2.777,-0.531 0,-0.111 14.85,-0.379 33,-0.594 33.264,-0.395 48.484,-0.93 54,-1.898 1.65,-0.29 8.85,-0.958 16,-1.486 12.037,-0.888 22.486,-1.021 68,-0.863 9.35,0.033 22.4,0.011 29,-0.049 6.6,-0.059 33.375,-0.017 59.5,0.093 26.125,0.11 54.475,-0.133 63,-0.541 42.479,-2.03 114.424,-3.158 137.5,-2.156 5.5,0.239 18.1,0.633 28,0.876 39.942,0.981 57.708,1.575 63.702,2.131 18.506,1.715 45.921,5.056 48.756,5.94 0.848,0.265 6.446,0.716 12.44,1.002 5.993,0.286 11.443,0.973 12.11,1.527 1.246,1.034 13.478,3.024 21.492,3.496 2.475,0.146 7.65,0.812 11.5,1.479 8.461,1.466 21.831,3.014 30,3.474 3.3,0.185 10.05,0.796 15,1.358 4.95,0.561 11.25,1.007 14,0.992 5.747,-0.033 17.211,0.991 19.666,1.756 0.916,0.286 1.967,0.032 2.334,-0.563 0.46,-0.742 5.265,-0.887 15.335,-0.46 25.193,1.067 41.402,1.147 48.665,0.239 3.85,-0.481 9.025,-1.055 11.5,-1.275 16.427,-1.461 19.768,-1.772 22,-2.052 1.375,-0.172 2.5,-0.371 2.5,-0.442 0,-0.18 8.129,-0.693 20.5,-1.294 5.775,-0.28 14.1,-0.99 18.5,-1.578 10.447,-1.395 126.133,-0.71 140,0.829 5.5,0.61 12.025,1.33 14.5,1.6 2.475,0.269 10.575,0.921 18,1.449 7.425,0.527 15.521,1.374 17.991,1.882 2.471,0.507 4.816,0.722 5.213,0.477 0.752,-0.465 10.688,0.973 19.296,2.791 10.081,2.13 30.774,9.812 33.475,12.428 2.656,2.572 4.192,56.209 2.558,89.316 -0.52,10.53 0.089,13.091 3.114,13.091 2.469,0 3.645,-5.21 3.766,-16.682 0.065,-6.15 0.423,-11.487 0.796,-11.86 0.672,-0.672 9.989,7.501 14.582,12.792 2.714,3.127 7.866,3.807 8.877,1.172 0.819,-2.132 -2.204,-5.999 -8.986,-11.495 -5.136,-4.162 -9.051,-8.796 -12.445,-14.732 -0.986,-1.725 -1.011,-3.248 -0.114,-6.952 0.632,-2.609 1.499,-5.132 1.928,-5.608 0.428,-0.476 4.305,-0.959 8.614,-1.073 7.477,-0.199 8.237,-0.445 16.631,-5.385 4.837,-2.848 9.337,-5.183 10,-5.19 0.662,-0.007 4.478,0.753 8.479,1.689 6.741,1.577 7.396,1.581 8.915,0.063 1.358,-1.358 1.417,-1.906 0.342,-3.2 -2.486,-2.996 -10.046,-5.539 -16.463,-5.539 -5.252,0 -6.919,0.479 -11.123,3.199 -9.001,5.822 -14.244,7.857 -18.493,7.178 -2.123,-0.34 -4.641,-1.48 -5.595,-2.534 -2.994,-3.308 -4.207,-12.28 -3.835,-28.343 0.284,-12.218 0.731,-15.976 2.413,-20.261 1.135,-2.893 2.064,-6.259 2.064,-7.479 0,-2.783 4.816,-15.722 6.64,-17.839 0.748,-0.868 1.36,-2.067 1.36,-2.665 0,-0.597 1.96,-2.812 4.356,-4.921 5.574,-4.908 14.893,-16.022 16.421,-19.585 0.649,-1.512 1.649,-2.75 2.223,-2.75 0.574,0 1.576,1.238 2.227,2.75 2.504,5.817 10.825,17.912 13.871,20.164 3.214,2.376 17.049,7.879 22.152,8.811 1.909,0.348 2.74,0.085 2.718,-0.862 -0.062,-2.666 -2.659,-4.732 -10.015,-7.966 -10.504,-4.618 -13.995,-7.652 -18.334,-15.934 -2.064,-3.94 -3.61,-7.276 -3.436,-7.415 1.501,-1.193 13.809,-2.376 25.237,-2.427 7.657,-0.034 14.354,-0.495 14.883,-1.024 1.675,-1.675 -0.09,-4.02 -4.717,-6.268 -4.095,-1.989 -5.062,-2.082 -11.283,-1.087 -7.71,1.233 -32.71,1.187 -33.959,-0.063 -1.141,-1.143 -0.532,-15.627 1.037,-24.663 1.746,-10.051 3.484,-13.048 11.111,-19.16 7.45,-5.97 11.018,-10.698 12.341,-16.356 0.515,-2.2 1.243,-4.742 1.62,-5.649 0.376,-0.907 0.244,-1.92 -0.294,-2.253 -0.975,-0.602 -3.092,1.689 -8.547,9.254 -1.588,2.203 -5.351,6.132 -8.362,8.731 -5.285,4.562 -5.393,4.606 -3.113,1.245 12.332,-18.169 12.248,-17.998 15.216,-31.328 3.012,-13.526 3.08,-14.501 1.008,-14.488 -1.401,0.01 -2.575,1.923 -4.753,7.75 -2.596,6.948 -4.166,10.884 -9.365,23.488 -0.85,2.062 -3.298,5.662 -5.439,8 -7.11,7.763 -7.197,8.161 -10.232,47.003 -1.248,15.974 -1.683,18.387 -4.34,24.064 -1.737,3.714 -5.463,8.957 -9.055,12.743 -3.357,3.538 -6.554,7.335 -7.104,8.437 -2.852,5.705 -9.069,21.215 -9.071,22.631 -10e-4,0.895 -0.674,3.237 -1.496,5.204 l -1.494,3.576 -4.756,-1.514 c -2.616,-0.832 -5.881,-1.875 -7.256,-2.317 -1.375,-0.442 -5.425,-1.953 -9,-3.359 -9.66,-3.797 -22.247,-6.523 -33.5,-7.255 -14.294,-0.929 -16.814,-1.172 -18.5,-1.779 -0.825,-0.298 -5.631,-0.8 -10.68,-1.117 -5.05,-0.317 -9.775,-0.766 -10.5,-0.998 -0.726,-0.232 -5.82,-0.695 -11.32,-1.029 -5.5,-0.334 -14.275,-0.893 -19.5,-1.243 -5.225,-0.35 -35.825,-0.597 -68,-0.55 -47.727,0.07 -61.078,0.391 -72.5,1.741 -7.7,0.911 -15.575,1.799 -17.5,1.975 -5.517,0.503 -29.509,2.588 -40.5,3.521 -10.324,0.875 -66.088,0.577 -82,-0.439 -4.95,-0.316 -13.725,-0.999 -19.5,-1.517 -5.775,-0.518 -14.086,-1.234 -18.468,-1.591 -4.382,-0.356 -8.882,-0.8 -10,-0.985 -1.118,-0.185 -4.732,-0.602 -8.032,-0.927 -9.988,-0.982 -14.436,-1.638 -28,-4.126 -7.15,-1.311 -18.625,-3.079 -25.5,-3.928 -6.875,-0.85 -15.875,-1.999 -20,-2.555 -4.125,-0.556 -10.875,-1.199 -15,-1.428 -9.881,-0.55 -20.13,-1.476 -22,-1.989 -4.232,-1.16 -33.861,-2.668 -70,-3.562 -22.275,-0.551 -40.95,-1.017 -41.5,-1.035 -7.713,-0.252 -87.525,0.995 -88.146,1.378 -1.056,0.651 -62.529,2.077 -90.354,2.096 -11.275,0.007 -38.275,-0.37 -60,-0.838 -21.725,-0.468 -40.85,-0.858 -42.5,-0.867 -10.206,-0.055 -70.295,2.552 -76.5,3.32 -13.09,1.618 -24.868,2.158 -48.5,2.22 -28.262,0.074 -45.958,-1.283 -53.725,-4.12 -3.149,-1.15 -6.468,-2.091 -7.376,-2.091 -0.908,0 -6.882,-2.787 -13.275,-6.192 -11.304,-6.022 -23.046,-14.935 -29.806,-22.622 -3.349,-3.81 -3.394,-4.277 -1.311,-13.686 0.487,-2.2 1.155,-5.542 1.485,-7.426 0.329,-1.884 1.522,-6.609 2.65,-10.5 1.129,-3.891 2.825,-10.227 3.77,-14.08 3.262,-13.303 8.719,-21.795 18.703,-29.107 6.868,-5.03 26.109,-16.817 30.937,-18.952 2.895,-1.281 5.562,-2.811 5.927,-3.401 0.867,-1.403 10.028,-6.034 11.938,-6.034 4.779,0 20.408,15.353 29.258,28.742 4.185,6.33 7.465,9.258 10.372,9.258 1.891,0 0.868,-2.486 -3.88,-9.431 -2.657,-3.888 -6.335,-9.769 -8.172,-13.069 -1.837,-3.3 -4.613,-7.881 -6.168,-10.18 -3.724,-5.507 -3.632,-7.853 0.392,-9.933 3.359,-1.737 8.394,-6.216 19.928,-17.727 6.412,-6.4 8.35,-9.66 5.741,-9.66 -1.338,0 -13.771,6.622 -15.888,8.463 -0.825,0.717 -3.525,2.309 -6,3.537 -2.475,1.228 -5.175,2.81 -6,3.515 -2.345,2.004 -9.212,5.668 -12.3,6.563 -2.447,0.709 -2.725,0.577 -2.209,-1.049 0.325,-1.024 0.187,-2.11 -0.306,-2.415 -1.036,-0.64 -0.269,-6.081 3.906,-27.679 2.146,-11.101 2.229,-19.01 0.207,-19.675 -1.228,-0.403 -2.916,4.735 -5.336,16.24 -2.433,11.571 -7.154,27.038 -9.462,31 -3.486,5.986 -8.052,9.84 -17.714,14.954 -4.792,2.537 -15.271,9.098 -23.286,14.58 -8.015,5.481 -14.716,9.966 -14.892,9.966 -0.175,0 -1.108,-3.713 -2.072,-8.25 -2.479,-11.664 -8.988,-29.08 -18.16,-48.593 -2.582,-5.494 -3.84,-7.193 -4.995,-6.75 -0.85,0.326 -1.897,0.593 -2.329,0.593 -0.919,0 0.195,6.396 1.742,10 4.92,11.463 11.529,36.047 12.77,47.5 1.63,15.055 1.619,21.357 -0.05,27.055 -0.957,3.27 -1.845,6.395 -1.974,6.945 -0.128,0.55 -0.752,2.267 -1.386,3.815 -0.635,1.548 -1.154,3.289 -1.154,3.867 0,2.219 -11.303,24.347 -13.348,26.131 -1.184,1.033 -4.177,3.073 -6.652,4.533 -4.145,2.445 -5.327,2.645 -15,2.542 -5.775,-0.062 -14.718,-0.67 -19.874,-1.351 -10.263,-1.356 -14.08,-3.44 -21.26,-11.605 -5.175,-5.886 -6.336,-8.109 -9.365,-17.939 -1.523,-4.946 -3.111,-9.443 -3.528,-9.993 -0.416,-0.55 -1.756,-4.6 -2.977,-9 -1.22,-4.4 -2.599,-8.721 -3.063,-9.601 -0.703,-1.333 -2.51,-8.704 -4.512,-18.399 -1.737,-8.413 -3.419,-15.539 -4.368,-18.5 -1.02,-3.184 -2.45,-14.463 -3.691,-29.114 -0.353,-4.165 0.079,-7.133 1.671,-11.5 1.18,-3.237 2.518,-7.236 2.972,-8.886 0.454,-1.65 1.818,-6.375 3.031,-10.5 1.212,-4.125 2.345,-8.4 2.517,-9.5 0.172,-1.1 1.411,-5.695 2.752,-10.211 2.29,-7.707 2.335,-8.305 0.738,-9.75 -2.055,-1.86 -2.251,-1.873 -4.194,-0.289 m 0.151,4.8 c 0,1.127 -0.737,3.474 -1.637,5.216 -0.901,1.741 -2.281,6.272 -3.066,10.068 -0.786,3.796 -2.965,11.42 -4.843,16.943 -1.879,5.523 -4.365,14.678 -5.525,20.343 l -2.11,10.301 2.522,9.789 c 1.387,5.385 3.237,12.436 4.111,15.669 2.25,8.322 2.224,14.818 -0.074,18.034 -1.848,2.586 -2.031,2.621 -11.343,2.161 -10.653,-0.526 -24.696,1.949 -33.535,5.911 -2.75,1.233 -7.656,2.801 -10.903,3.484 -3.246,0.684 -7.746,2.107 -10,3.164 -2.253,1.057 -3.314,1.7 -2.357,1.429 11.281,-3.188 36.425,-8.804 44.417,-9.92 20.924,-2.922 26.517,1.007 36.094,25.358 1.839,4.675 3.748,11.2 4.242,14.5 1.092,7.291 1.634,9.931 3.433,16.737 1.702,6.439 1.304,15.953 -0.881,21.079 -0.895,2.099 -5.126,7.499 -9.403,12 -8.509,8.955 -9.669,11.303 -13.188,26.684 -2.894,12.646 -4.547,15.816 -9.454,18.127 -2.2,1.036 -5.35,2.768 -7,3.85 -7.826,5.13 -10.043,5.813 -23,7.085 -14.604,1.433 -26.521,1.782 -25.888,0.757 0.231,-0.374 0.004,-0.938 -0.506,-1.253 -1.07,-0.662 -15.915,-22.894 -21.853,-32.729 -5.185,-8.587 -10.532,-23.854 -10.626,-30.337 -0.069,-4.833 0.688,-15.557 1.976,-28 0.928,-8.951 -0.269,-6.282 -1.569,3.502 -1.582,11.909 -3.249,20.325 -4.256,21.488 -1.076,1.241 -7.514,-5.805 -14.278,-15.626 -7.018,-10.19 -14.808,-19.439 -15.252,-18.108 -0.472,1.417 1.739,4.899 8.724,13.742 3.04,3.849 7.133,9.474 9.095,12.5 1.962,3.026 5.59,8.248 8.061,11.605 5.215,7.083 9.632,15.807 13.364,26.397 1.454,4.125 5.353,12.582 8.666,18.793 3.312,6.212 5.793,11.893 5.512,12.625 -0.281,0.733 -1.784,1.584 -3.341,1.892 -12.14,2.405 -23.774,6.135 -34.329,11.006 -5.661,2.613 -15.976,6.927 -21.805,9.12 -1.818,0.684 -3.256,1.653 -3.197,2.154 0.271,2.285 -3.435,1.248 -6.978,-1.953 -2.145,-1.938 -5.199,-4.195 -6.786,-5.016 C 44.35,294.13 21.722,287.164 17,286.314 c -2.57,-0.462 8.748,6.176 12.441,7.297 1.132,0.344 2.734,1.166 3.559,1.826 0.825,0.661 4.65,3.069 8.5,5.353 3.85,2.283 8.083,5.008 9.408,6.054 l 2.407,1.902 -3.407,3.138 c -1.875,1.726 -7.233,5.034 -11.908,7.351 -4.675,2.316 -10.3,5.627 -12.5,7.357 -2.2,1.73 -6.025,4.423 -8.5,5.985 -3.15,1.988 -3.998,2.945 -2.825,3.19 2.453,0.514 11.384,-4.576 23.385,-13.328 3.817,-2.784 8.515,-5.934 10.44,-7 1.925,-1.067 5.662,-3.83 8.304,-6.141 5.768,-5.044 13.561,-8.789 23.696,-11.388 8.259,-2.118 15.886,-4.53 20.5,-6.484 7.572,-3.206 13.356,-5.289 16.058,-5.785 1.618,-0.297 3.957,-0.84 5.197,-1.208 1.241,-0.368 2.816,-0.231 3.5,0.304 2.777,2.17 8.846,3.349 22.689,4.406 8.006,0.611 16.888,1.048 19.739,0.971 2.851,-0.076 5.447,0.287 5.769,0.809 0.323,0.521 -0.381,2.665 -1.564,4.762 -1.183,2.098 -4.37,8.038 -7.082,13.199 -2.712,5.161 -5.576,10.029 -6.363,10.816 -0.788,0.788 -4.697,6.234 -8.688,12.102 -3.99,5.869 -9.082,12.476 -11.316,14.684 -5.493,5.431 -10.313,9.514 -11.228,9.514 -0.416,0 -2.443,1.391 -4.506,3.091 -3.38,2.786 -4.71,3.175 -13.477,3.942 -5.351,0.468 -12.41,1.552 -15.688,2.409 -3.278,0.857 -9.174,1.558 -13.101,1.558 -3.927,0 -8.445,0.423 -10.04,0.94 -1.594,0.517 -4.883,1.189 -7.309,1.493 -2.425,0.304 -4.591,0.735 -4.814,0.957 -0.548,0.549 22.462,2.104 26.231,1.773 1.653,-0.145 8.105,-0.587 14.338,-0.983 10.239,-0.65 11.422,-0.549 12.275,1.045 0.944,1.763 0.18,2.94 -12.512,19.275 -1.709,2.2 -3.558,4.724 -4.108,5.61 -0.55,0.885 -1.848,2.812 -2.885,4.281 -2.674,3.788 -0.952,4.719 2.05,1.109 1.372,-1.65 4.648,-5.25 7.281,-8 2.632,-2.75 6.464,-7.25 8.515,-10 4.174,-5.596 10.197,-10.77 15.433,-13.254 3.887,-1.845 13.106,-10.226 13.106,-11.915 0,-0.597 0.67,-1.642 1.489,-2.322 0.819,-0.68 1.242,-1.635 0.941,-2.122 -0.301,-0.488 0.063,-0.887 0.81,-0.887 0.747,0 1.928,-1.575 2.624,-3.5 0.696,-1.925 1.686,-3.5 2.201,-3.5 0.514,0 0.935,-0.503 0.935,-1.118 0,-0.615 1.35,-2.656 3,-4.535 1.65,-1.879 3,-4.021 3,-4.759 0,-0.739 0.653,-1.885 1.45,-2.547 0.798,-0.662 2.838,-3.662 4.534,-6.667 1.696,-3.004 3.722,-5.708 4.503,-6.008 1.469,-0.563 5.513,-6.75 5.513,-8.433 0,-0.525 1.575,-3.194 3.5,-5.933 1.925,-2.739 3.5,-5.29 3.5,-5.669 0,-2.587 14.981,-12.331 18.958,-12.331 2.661,0 11.35,6.329 13.302,9.688 1.019,1.754 2.89,8.809 4.158,15.678 2.037,11.035 2.743,13.085 6.055,17.598 3.627,4.941 13.45,13.744 16.523,14.808 0.827,0.287 3.699,2.776 6.382,5.532 l 4.877,5.011 -0.615,11.592 c -0.82,15.468 -2.327,26.07 -3.981,28.007 -0.745,0.872 -1.634,2.373 -1.975,3.335 -0.341,0.962 -3.053,2.862 -6.025,4.221 -5.196,2.377 -8.314,2.988 -28.159,5.517 -4.95,0.631 -10.125,1.519 -11.5,1.973 -1.375,0.454 -5.2,1.357 -8.5,2.007 -13.139,2.585 -31.19,7.411 -34.5,9.222 -2.665,1.46 -2.904,1.774 -1,1.321 1.375,-0.328 8.35,-1.715 15.5,-3.083 20.506,-3.923 22.235,-2.776 12.291,8.159 -6.889,7.576 -11.39,13.287 -14.119,17.914 -0.972,1.65 0.389,0.525 3.026,-2.5 10.234,-11.74 26.246,-26.412 31.302,-28.682 13.428,-6.03 27.565,-8.36 45.25,-7.458 2.058,0.105 2.75,0.655 2.75,2.185 0,1.125 1.09,3.136 2.422,4.468 1.333,1.333 2.688,3.225 3.012,4.205 0.937,2.83 12.442,14.278 20.323,20.222 4.808,3.626 7.554,6.471 8.235,8.534 0.561,1.703 1.254,8.228 1.539,14.502 0.284,6.273 0.678,11.567 0.875,11.763 0.196,0.197 0.892,-4.277 1.546,-9.941 1.478,-12.794 1.344,-12.405 4.527,-13.203 1.888,-0.474 4.26,0.158 8.33,2.219 5.941,3.009 15.247,5.667 17.367,4.961 0.678,-0.226 -1.222,-1.188 -4.222,-2.138 -14.3,-4.529 -23.278,-9.154 -32.133,-16.555 -3.673,-3.07 -8.727,-7.091 -11.232,-8.935 -2.504,-1.844 -5.544,-4.994 -6.755,-7 -1.21,-2.006 -3.525,-5.189 -5.142,-7.074 -2.716,-3.165 -5.526,-8.454 -6.413,-12.073 -0.525,-2.138 -0.437,-23.936 0.1,-24.804 0.245,-0.397 0.711,-3.719 1.035,-7.381 0.324,-3.663 0.862,-7.482 1.195,-8.487 1.315,-3.963 5.407,-11.974 7.102,-13.902 0.984,-1.119 2.28,-2.898 2.88,-3.952 0.6,-1.054 3.3,-3.28 6,-4.945 4.867,-3.003 5.021,-3.027 17.994,-2.831 9.121,0.138 14.423,0.687 17.5,1.811 2.428,0.887 5.99,2.087 7.915,2.665 8.937,2.687 12.95,5.687 18.047,13.495 2.724,4.173 4.953,8.044 4.953,8.601 0,0.558 1.733,3.763 3.85,7.122 4.861,7.71 11.15,19.841 11.15,21.505 0,0.696 1.575,3.954 3.5,7.238 1.925,3.285 3.5,6.347 3.5,6.804 0,0.458 0.672,2.121 1.494,3.697 0.821,1.575 1.496,3.539 1.5,4.364 0.007,1.849 5.078,5.982 11.037,8.997 5.716,2.893 16.819,9.592 29.289,17.672 9.271,6.007 16.554,9.79 17.339,9.006 0.349,-0.35 -4.029,-2.999 -15.99,-9.675 -5.29,-2.952 -12.828,-8.095 -14.669,-10.008 -0.275,-0.286 -2.809,-2.423 -5.632,-4.75 -5.769,-4.756 -7.001,-7.366 -4.28,-9.065 1.008,-0.629 2.064,-0.74 2.368,-0.248 0.302,0.488 2.326,0.029 4.498,-1.021 2.172,-1.049 4.792,-1.908 5.821,-1.908 1.029,0 7.463,-1.093 14.298,-2.428 6.835,-1.336 15.742,-2.923 19.793,-3.527 4.052,-0.605 8.253,-1.574 9.336,-2.153 4.109,-2.199 2.347,-2.01 -18.702,2.004 -15.677,2.99 -18.334,3.472 -23,4.174 -2.75,0.413 -8.375,1.28 -12.5,1.926 -12.611,1.974 -12.895,1.912 -17.155,-3.794 -1.97,-2.639 -3.926,-5.901 -4.346,-7.25 -0.42,-1.349 -2.898,-6.727 -5.505,-11.952 -2.608,-5.225 -5.774,-11.975 -7.036,-15 -1.261,-3.025 -2.848,-6.175 -3.525,-7 -2.289,-2.787 -8.584,-15.182 -8.006,-15.761 0.316,-0.316 2.149,-0.091 4.074,0.5 4.803,1.474 4.411,0.048 -0.595,-2.16 -2.683,-1.184 -5.04,-3.297 -6.836,-6.13 -2.497,-3.937 -2.724,-5.086 -2.539,-12.868 0.128,-5.409 0.71,-9.24 1.585,-10.436 0.761,-1.039 3.281,-4.382 5.599,-7.427 5.609,-7.369 13.901,-23.23 14.753,-28.218 0.949,-5.56 5.371,-15.433 8.455,-18.879 1.417,-1.584 4.827,-4.396 7.577,-6.248 2.75,-1.853 6.1,-4.157 7.445,-5.121 2.206,-1.581 5.575,-1.754 34.5,-1.774 33.475,-0.022 47.641,-0.683 63.555,-2.967 5.225,-0.75 14.225,-1.497 20,-1.661 11.741,-0.333 85.639,-0.045 152.5,0.595 24.2,0.231 47.15,0.024 51,-0.461 18.98,-2.39 118.432,-3.228 196,-1.65 31.639,0.643 43.74,1.258 53,2.69 10.795,1.67 16,2.282 29,3.408 10.096,0.874 24.946,2.832 35,4.615 6.05,1.073 15.5,2.377 21,2.898 12.179,1.153 16.407,1.687 28,3.535 4.95,0.79 12.375,1.656 16.5,1.925 4.125,0.27 13.125,0.957 20,1.526 13.383,1.11 45.143,2.078 72,2.196 10.657,0.047 23.051,-0.669 35,-2.022 10.175,-1.152 20.914,-2.361 23.864,-2.686 2.95,-0.325 4.975,-0.97 4.5,-1.434 -0.475,-0.463 -3.04,-0.431 -5.7,0.072 -9.068,1.715 -49.761,3.828 -52.699,2.737 -1.046,-0.388 -2.123,-0.347 -2.394,0.092 -0.501,0.809 -22.054,0.511 -24.289,-0.337 -0.67,-0.254 -1.5,-0.005 -1.845,0.553 -0.345,0.558 -1.822,0.783 -3.282,0.5 -1.46,-0.283 -10.755,-0.804 -20.655,-1.159 -9.9,-0.354 -19.35,-0.811 -21,-1.015 -1.65,-0.204 -5.925,-0.618 -9.5,-0.919 -3.575,-0.301 -10.775,-1.014 -16,-1.584 -5.225,-0.571 -12.387,-1.259 -15.916,-1.531 -3.529,-0.271 -11.954,-1.594 -18.722,-2.941 -10.808,-2.15 -27.858,-4.955 -36.862,-6.064 -12.551,-1.545 -32.601,-3.473 -40.5,-3.894 -5.225,-0.279 -10.921,-0.742 -12.658,-1.029 -1.736,-0.287 -5.786,-0.714 -9,-0.949 -3.213,-0.235 -9.442,-0.693 -13.842,-1.019 -4.4,-0.325 -14.075,-0.734 -21.5,-0.909 -7.425,-0.175 -24.075,-0.651 -37,-1.058 -25.176,-0.793 -27.494,-0.827 -53.5,-0.797 -9.35,0.011 -21.725,-0.007 -27.5,-0.041 -9.813,-0.057 -38.407,1.088 -44,1.762 -4.403,0.531 -71.891,1.886 -89.5,1.797 -9.35,-0.047 -27.575,-0.334 -40.5,-0.637 -67.976,-1.596 -91.637,-1.108 -145.493,3.003 -15.914,1.215 -28.979,1.477 -54,1.082 -32.178,-0.508 -33.22,-0.588 -41.507,-3.173 -11.388,-3.553 -25.693,-10.858 -33.838,-17.28 -3.664,-2.89 -8.083,-6.363 -9.82,-7.719 -1.736,-1.356 -4.877,-4.565 -6.979,-7.13 -5.115,-6.242 -5.113,-6.291 1.302,-33.398 0.846,-3.575 1.901,-7.4 2.343,-8.5 0.442,-1.1 1.566,-4.925 2.497,-8.5 2.272,-8.719 5.752,-15.47 10.805,-20.955 4.244,-4.608 15.909,-13.464 22.552,-17.122 2.001,-1.102 6.563,-3.776 10.138,-5.943 3.575,-2.168 7.203,-3.95 8.061,-3.96 0.859,-0.011 2.434,-0.821 3.5,-1.801 1.067,-0.98 4.543,-3.243 7.725,-5.029 5.27,-2.958 6.134,-3.154 9.688,-2.197 5.059,1.362 12.716,7.464 18.738,14.931 5.242,6.501 7.369,7.947 4.157,2.826 -1.121,-1.787 -3.736,-5.95 -5.812,-9.25 -5.67,-9.014 -5.758,-9.804 -1.313,-11.778 2.066,-0.918 4.881,-2.696 6.256,-3.952 1.375,-1.256 5.109,-4.491 8.297,-7.189 3.188,-2.697 6.744,-6.234 7.9,-7.858 l 2.104,-2.954 -2.37,1.268 c -1.303,0.697 -4.138,2.549 -6.3,4.115 -2.162,1.567 -4.506,2.848 -5.21,2.848 -0.703,0 -1.873,0.562 -2.6,1.25 -0.726,0.688 -3.121,2.424 -5.321,3.86 -11.332,7.394 -14.293,8.292 -17.568,5.329 -1.905,-1.725 -1.821,-4.015 0.656,-17.799 1.798,-10.008 1.658,-13.195 -0.203,-4.64 -4.193,19.269 -8.801,26.752 -20.011,32.5 -3.218,1.65 -8.227,4.463 -11.132,6.25 -2.904,1.788 -5.632,3.25 -6.061,3.25 -0.849,0 -12.854,8.552 -15.002,10.687 -0.727,0.722 -1.927,1.313 -2.667,1.313 -0.74,0 -1.495,0.338 -1.679,0.75 -0.183,0.412 -2.027,2.016 -4.098,3.563 -4.983,3.721 -7.345,2.978 -8.272,-2.605 -0.654,-3.941 -0.882,-5.099 -2.005,-10.208 -0.873,-3.969 -5.237,-15.581 -5.84,-15.541 -0.947,0.063 -0.907,1.119 0.244,6.541 2.438,11.483 4.138,23.693 4.138,29.725 0,15.457 -15.614,53.687 -23.767,58.193 -11.296,6.242 -19.357,6.498 -48.233,1.529 -3.575,-0.615 -7.287,-1.176 -8.25,-1.247 -0.963,-0.071 -1.75,-0.519 -1.75,-0.997 0,-0.477 -2.285,-3.165 -5.078,-5.972 -5.908,-5.939 -8.879,-11.393 -12.799,-23.494 -3.663,-11.306 -5.611,-17.612 -5.635,-18.237 -0.01,-0.275 -0.314,-0.962 -0.675,-1.527 -1.08,-1.692 -7.289,-27.006 -11.766,-47.973 -1.144,-5.36 -1.852,-11.285 -2.573,-21.544 -0.545,-7.737 -0.312,-9.435 2.468,-18 1.689,-5.201 3.517,-10.237 4.064,-11.192 0.547,-0.955 0.994,-2.673 0.994,-3.816 0,-1.144 0.405,-2.837 0.901,-3.764 0.495,-0.926 1.14,-3.034 1.431,-4.684 0.292,-1.65 1.243,-5.475 2.114,-8.5 2.196,-7.626 2.765,-12 1.564,-12 -0.556,0 -1.01,0.922 -1.01,2.05 m 97.526,70.45 c 0.346,1.1 1.361,4.362 2.257,7.25 0.896,2.888 1.986,5.25 2.423,5.25 1.451,0 0.8,-2.437 -2.27,-8.5 -1.671,-3.3 -2.756,-5.1 -2.41,-4 m 1253.659,45.588 c -1.274,2.976 -2.913,6.762 -3.643,8.412 -0.731,1.65 -3.626,5.842 -6.435,9.316 -2.809,3.474 -5.116,6.849 -5.127,7.5 -0.011,0.651 -0.439,4.109 -0.951,7.684 -0.512,3.575 -1.227,9.875 -1.589,14 -0.362,4.125 -0.796,7.732 -0.963,8.016 -0.168,0.283 -0.427,5.233 -0.576,11 -0.415,16.087 -4.043,25.297 -13.482,34.23 -4.003,3.788 -6.632,7.524 -9.423,13.393 -3.673,7.72 -8.996,22.19 -8.996,24.453 0,2.356 -3.035,4.117 -5.78,3.353 -1.496,-0.416 -3.414,-0.894 -4.263,-1.063 -0.848,-0.168 -6.023,-2.174 -11.5,-4.457 -15.485,-6.456 -22.466,-7.881 -46.269,-9.444 -4.571,-0.3 -11.766,-0.984 -15.989,-1.519 -4.223,-0.536 -13.533,-1.418 -20.689,-1.96 -7.155,-0.543 -15.935,-1.268 -19.51,-1.611 -8.33,-0.801 -119.186,-1.015 -132.804,-0.257 -6.086,0.339 -10.794,1.076 -11.5,1.799 -0.943,0.966 1.762,1.054 12.804,0.413 7.7,-0.447 15.575,-0.769 17.5,-0.715 1.925,0.054 18.8,0.097 37.5,0.095 57.512,-0.006 67.722,0.162 77.019,1.272 22.633,2.702 32.58,3.658 51.981,4.995 25.095,1.729 37.397,4.435 53.5,11.768 3.575,1.628 7.625,3.231 9,3.562 4.511,1.087 5.385,3.999 6.056,20.177 0.341,8.25 0.555,24.531 0.474,36.18 -0.105,15.043 0.159,20.798 0.911,19.865 1.514,-1.879 3.784,-2.416 5.809,-1.375 2.77,1.425 2.095,-0.567 -1.75,-5.17 -4.083,-4.887 -4.414,-8.085 -1.604,-15.5 l 1.895,-5 9.005,-0.5 c 6.404,-0.356 9.539,-0.977 10.854,-2.15 1.018,-0.908 3.425,-2.38 5.35,-3.271 5.621,-2.603 11.63,-6.545 10,-6.56 -0.825,-0.008 -5.441,2.196 -10.258,4.898 -9.448,5.3 -14.051,6.291 -19.851,4.275 -2.733,-0.949 -4.189,-2.382 -6,-5.903 -2.254,-4.383 -2.391,-5.653 -2.391,-22.219 0,-15.559 0.25,-18.257 2.182,-23.57 1.2,-3.3 3.167,-9.375 4.371,-13.5 2.645,-9.062 6.917,-17.459 10.943,-21.507 6.212,-6.246 15.689,-18.12 16.929,-21.21 1.253,-3.124 4.129,-4.986 5.957,-3.856 0.495,0.306 2.76,4.364 5.033,9.017 2.274,4.653 5.306,9.854 6.74,11.557 2.471,2.938 12.054,8.624 12.976,7.701 0.238,-0.238 -0.943,-1.003 -2.625,-1.7 -1.682,-0.696 -4.959,-3.392 -7.282,-5.99 -4.82,-5.39 -11.22,-17.276 -10.423,-19.355 0.783,-2.039 4.337,-2.548 23.052,-3.3 14.669,-0.589 16.548,-0.847 14.5,-1.991 -1.733,-0.969 -4.461,-1.124 -10.353,-0.591 -4.4,0.399 -14.75,0.725 -23,0.725 h -15 l 0.285,-11 c 0.301,-11.626 1.557,-21.131 3.414,-25.842 0.83,-2.106 0.827,-3.024 -0.01,-3.541 -2.433,-1.504 0.139,-8.54 6.562,-17.948 6.686,-9.791 10.534,-17.462 10.039,-20.006 -0.16,-0.818 -1.332,0.948 -2.605,3.925 m -0.742,20.078 c -6.087,6.262 -5.833,6.746 0.824,1.569 3.577,-2.782 6.348,-6.453 5.507,-7.294 -0.214,-0.214 -3.063,2.362 -6.331,5.725 m -1299.44,85.088 c -2.473,0.529 -6.52381,1.71198 -7.90728,2.854 -1.99393,1.64593 -2.7265,1.08961 -4.34025,1.63691 -0.61235,0.20768 -1.98619,1.75328 -3.04519,1.75328 -4.608,0 -12.50528,12.02819 -12.83928,20.00219 -0.069,1.65 -0.51,4.35 -0.98,6 -1.37,4.816 1.228,13.719 5.54,18.982 2.037,2.485 4.391,4.518 5.232,4.518 0.84,0 2.723,0.838 4.183,1.861 4.474,3.138 9.623,4.253 18.7,4.053 11.356,-0.25 20.268,-3.258 25.676,-8.665 2.147,-2.148 4.001,-4.545 4.119,-5.327 0.119,-0.782 0.537,-1.936 0.929,-2.564 2.2357,-8.00871 0.98368,-25.54322 -2.57691,-29.01391 0.354,-0.572 -1.00628,-2.05809 -2.10128,-2.99609 -1.50755,-2.66765 -2.04884,-2.60026 -4.45509,-4.59581 -1.838,-1.568 -5.21012,-4.64412 -4.08212,-3.18812 6.9555,3.20229 -2.48805,-1.43455 -3.7236,-1.97107 -7.986,-3.971 -11.972,-4.697 -18.328,-3.339 m 1.997,1.668 c -0.825,0.482 -6.63266,2.37509 -10.75766,3.90009 -13.038,4.821 -13.67834,7.08191 -16.23234,18.58891 -0.6,2.7 -1.373,5.368 -1.719,5.927 -0.549,0.889 -0.687,5.3 -0.383,12.271 0.12,2.752 7.448,11.042 11.458,12.962 1.724,0.826 4.484,2.272 6.134,3.215 2.373,1.356 5.028,1.66 12.707,1.456 5.338,-0.142 10.963,-0.764 12.5,-1.381 1.536,-0.618 3.818,-1.192 5.07,-1.276 2.796,-0.188 9.379,-7.009 12.312,-12.759 1.924,-3.771 2.098,-5.233 1.52,-12.757 -0.596,-7.751 -0.76791,-10.06338 -4.55891,-15.88138 C 292.96309,255.91362 284.407,250 280.963,250 c -0.859,0 -1.991,-0.415 -2.513,-0.922 -1.425,-1.383 -7.739,-2.155 -9.45,-1.156 m 964.5,17.07 c -1.209,0.515 0.769,0.63 5,0.29 3.85,-0.309 7.188,-0.723 7.417,-0.922 0.875,-0.757 -10.516,-0.177 -12.417,0.632 m -4.687,0.691 c 0.721,0.289 1.584,0.253 1.916,-0.079 0.332,-0.332 -0.258,-0.568 -1.312,-0.525 -1.165,0.048 -1.402,0.285 -0.604,0.604 M 477.5,315.464 c -3.3,0.673 -8.181,1.979 -10.846,2.901 -2.665,0.922 -6.49,1.937 -8.5,2.255 -2.01,0.318 -4.025,0.805 -4.477,1.083 -0.453,0.278 -4.503,0.506 -9,0.506 l -8.177,10e-4 9.398,2.363 c 5.168,1.299 9.777,2.128 10.241,1.841 1.008,-0.623 8.197,4.204 14.813,9.947 18.705,16.237 18.386,16.053 8.069,4.652 -5.213,-5.761 -10.95,-11.768 -12.75,-13.348 -1.799,-1.58 -3.271,-3.239 -3.271,-3.687 0,-2.016 7.573,-5.136 17.098,-7.046 5.712,-1.145 10.576,-2.273 10.81,-2.507 0.818,-0.817 -7.459,-0.176 -13.408,1.039 m -53.668,5.893 c -4.551,1.418 -6.508,3.226 -2.332,2.154 1.65,-0.424 5.7,-1.1 9,-1.504 3.3,-0.403 4.574,-0.795 2.832,-0.87 -1.743,-0.075 -3.768,-0.314 -4.5,-0.53 -0.733,-0.216 -2.983,0.121 -5,0.75 M 1559,322.461 c 0,0.415 5.208,1.948 10.5,3.09 1.1,0.237 0.2,-0.453 -2,-1.534 -3.653,-1.794 -8.5,-2.681 -8.5,-1.556 m -1143.5,2.701 c -3.221,1.774 -8.437,7.008 -11.547,11.588 -1.587,2.337 -2.774,4.25 -2.638,4.25 0.137,0 4.018,-3.825 8.627,-8.5 4.608,-4.675 8.194,-8.486 7.968,-8.47 -0.225,0.017 -1.31,0.526 -2.41,1.132 m -22.459,22.265 c -8.968,7.472 -11.822,8.258 -31.861,8.766 -6.123,0.156 -7.707,0.447 -6,1.106 3.532,1.361 23.616,0.124 29.015,-1.787 2.873,-1.017 7.144,-3.946 11,-7.543 7.902,-7.37 6.473,-7.729 -2.154,-0.542 m 1137.402,21.331 c 3.268,3.404 6.181,5.951 6.473,5.659 0.292,-0.292 -1.268,-2.192 -3.466,-4.224 -7.512,-6.941 -8.956,-7.63 -3.007,-1.435 m -17.52,6.992 c -0.042,1.512 -0.227,3.538 -0.411,4.5 -0.184,0.962 0.075,1.75 0.576,1.75 0.502,0 0.912,-2.025 0.912,-4.5 0,-4.813 -0.948,-6.355 -1.077,-1.75"
     id="path4672"
     inkscape:connector-curvature="0"
     style="display:inline;fill:#000000;fill-rule:evenodd;stroke:none"
     sodipodi:nodetypes="cccccccccccsccccccccsccccscccccsccsccscscccccccccccccccscccccsscsccccsccccccsccsssscssccccscccccccscccccscccccccccsccccsscccccccccccccccsccccccscccccssccccccccscccccccccccccsscccccscscscsscccccsssccccccccccssccccccccccccccscccccsccccccccccccccccccsccccccccccscscccccccccsccscccccscsccsccccscccsccccccccccccccccccccccccscccccsscccccscscccsccccccsccccscccccccccscscscccscsccccccccccscccscccccscccccccccccccscscccccccccccccccccccccccccccccccccccccsccccccccccccccccccsscccccccccccccssccsccsscccccccccccccsscsssssscccssssccccccccsccscccccccccsscccccccccccccccccccscccccscscscccccccccccscccccccscccccccccccccccccccccccccccccscccccsscssccccccccscccccccscccccsccccccccccccscccccscccccccscsccccccsccsscccccccsscccsccssccccssssccccscccccccccsscccccccccccccccccccsssccccccccccccscccccccccsccssscccsccccccccccccccccccccccccscccccccscccssccccccccscccccccccccccccsccccccccccscccsssc"
     inkscape:label="motorNeuron" />
  <g
     id="g8769"
     inkscape:label="annotation"
     style="display:inline">
    <text
       id="text6160"
       y="120.28672"
       x="3.1591852"
       style="font-style:normal;font-weight:normal;font-size:40px;line-height:125%;font-family:sans-serif;letter-spacing:0px;word-spacing:0px;fill:#000000;fill-opacity:1;stroke:none;stroke-width:1px;stroke-linecap:butt;stroke-linejoin:miter;stroke-opacity:1"
       xml:space="preserve"><tspan
         y="120.28672"
         x="3.1591852"
         id="tspan6158"
         sodipodi:role="line">dendrites</tspan></text>
    <text
       xml:space="preserve"
       style="font-style:normal;font-weight:normal;font-size:40px;line-height:125%;font-family:sans-serif;letter-spacing:0px;word-spacing:0px;fill:#000000;fill-opacity:1;stroke:none;stroke-width:1px;stroke-linecap:butt;stroke-linejoin:miter;stroke-opacity:1"
       x="872.12836"
       y="220.81706"
       id="text6164"><tspan
         sodipodi:role="line"
         id="tspan6162"
         x="872.12836"
         y="220.81706">axon</tspan></text>
    <text
       id="text6168"
       y="448.69971"
       x="1364.8488"
       style="font-style:normal;font-weight:normal;font-size:40px;line-height:125%;font-family:sans-serif;letter-spacing:0px;word-spacing:0px;fill:#000000;fill-opacity:1;stroke:none;stroke-width:1px;stroke-linecap:butt;stroke-linejoin:miter;stroke-opacity:1"
       xml:space="preserve"><tspan
         y="448.69971"
         x="1364.8488"
         id="tspan6166"
         sodipodi:role="line">axon</tspan><tspan
         id="tspan6170"
         y="498.69971"
         x="1364.8488"
         sodipodi:role="line">terminals</tspan></text>
    <path
       inkscape:connector-curvature="0"
       id="path6460"
       d="M 98.441416,29.353669 182.83396,63.143897"
       style="fill:#808080;fill-rule:evenodd;stroke:#333333;stroke-width:3;stroke-linecap:butt;stroke-linejoin:miter;stroke-miterlimit:4;stroke-dasharray:none;stroke-opacity:1;marker-end:url(#marker6464)" />
    <path
       style="fill:#808080;fill-rule:evenodd;stroke:#333333;stroke-width:3;stroke-linecap:butt;stroke-linejoin:miter;stroke-miterlimit:4;stroke-dasharray:none;stroke-opacity:1;marker-end:url(#marker6602)"
       d="m 1352.2252,232.23747 h 90.9059"
       id="path6598"
       inkscape:connector-curvature="0" />
    <path
       inkscape:connector-curvature="0"
       id="path8688"
       d="m 594.5916,258.39463 v 54.2364"
       style="display:inline;fill:none;fill-rule:evenodd;stroke:#333333;stroke-width:2;stroke-linecap:butt;stroke-linejoin:miter;stroke-miterlimit:4;stroke-dasharray:none;stroke-opacity:1" />
    <text
       id="text8692"
       y="352.9147"
       x="576.68427"
       style="font-style:normal;font-weight:normal;font-size:40px;line-height:125%;font-family:sans-serif;letter-spacing:0px;word-spacing:0px;fill:#000000;fill-opacity:1;stroke:none;stroke-width:1px;stroke-linecap:butt;stroke-linejoin:miter;stroke-opacity:1"
       xml:space="preserve"><tspan
         y="352.9147"
         x="576.68427"
         id="tspan8690"
         sodipodi:role="line">myelin sheath</tspan><tspan
         id="tspan8694"
         y="402.9147"
         x="576.68427"
         sodipodi:role="line">(schwann cells)</tspan></text>
    <text
       xml:space="preserve"
       style="font-style:normal;font-weight:normal;font-size:40px;line-height:125%;font-family:sans-serif;letter-spacing:0px;word-spacing:0px;display:inline;fill:#333333;fill-opacity:1;stroke:none;stroke-width:1px;stroke-linecap:butt;stroke-linejoin:miter;stroke-opacity:1"
       x="1348.0096"
       y="201.845"
       id="text10317"><tspan
         sodipodi:role="line"
         id="tspan10315"
         x="1348.0096"
         y="201.845"
         style="font-style:italic;font-variant:normal;font-weight:normal;font-stretch:normal;font-size:32px;font-family:sans-serif;-inkscape-font-specification:'sans-serif, Italic';font-variant-ligatures:normal;font-variant-caps:normal;font-variant-numeric:normal;font-feature-settings:normal;text-align:start;writing-mode:lr-tb;text-anchor:start;fill:#333333;stroke:none">output</tspan></text>
    <path
       style="display:inline;fill:none;fill-rule:evenodd;stroke:#333333;stroke-width:2;stroke-linecap:butt;stroke-linejoin:miter;stroke-miterlimit:4;stroke-dasharray:none;stroke-opacity:1"
       d="M 1536.1574,380.8428 1477.84,437.25977"
       id="path8775"
       inkscape:connector-curvature="0" />
    <text
       id="text8698"
       y="216.61302"
       x="341.41946"
       style="font-style:normal;font-weight:normal;font-size:40px;line-height:125%;font-family:sans-serif;letter-spacing:0px;word-spacing:0px;fill:#000000;fill-opacity:1;stroke:none;stroke-width:1px;stroke-linecap:butt;stroke-linejoin:miter;stroke-opacity:1"
       xml:space="preserve"><tspan
         y="216.61302"
         x="341.41946"
         id="tspan8696"
         sodipodi:role="line">soma</tspan></text>
    <path
       style="display:inline;fill:none;fill-rule:evenodd;stroke:#333333;stroke-width:2;stroke-linecap:butt;stroke-linejoin:miter;stroke-miterlimit:4;stroke-dasharray:none;stroke-opacity:1"
       d="M 1509.0392,392.89533 1477.84,437.25977"
       id="path8771"
       inkscape:connector-curvature="0" />
    <text
       id="text10833"
       y="40.759689"
       x="11.727314"
       style="font-style:normal;font-weight:normal;font-size:40px;line-height:125%;font-family:sans-serif;letter-spacing:0px;word-spacing:0px;display:inline;fill:#333333;fill-opacity:1;stroke:none;stroke-width:1px;stroke-linecap:butt;stroke-linejoin:miter;stroke-opacity:1"
       xml:space="preserve"><tspan
         style="font-style:italic;font-variant:normal;font-weight:normal;font-stretch:normal;font-size:32px;font-family:sans-serif;-inkscape-font-specification:'sans-serif, Italic';font-variant-ligatures:normal;font-variant-caps:normal;font-variant-numeric:normal;font-feature-settings:normal;text-align:start;writing-mode:lr-tb;text-anchor:start;fill:#333333;stroke:none"
         y="40.759689"
         x="11.727314"
         sodipodi:role="line"
         id="tspan10839">input</tspan></text>
  </g>
</svg>
