<?xml version="1.0" encoding="UTF-8" standalone="no"?>
<!DOCTYPE svg PUBLIC "-//W3C//DTD SVG 1.1//EN"
 "http://www.w3.org/Graphics/SVG/1.1/DTD/svg11.dtd">
<!-- Generated by graphviz version 2.40.1 (20161225.0304)
 -->
<!-- Title: g Pages: 1 -->
<svg width="1018pt" height="276pt"
 viewBox="0.00 0.00 1018.39 276.00" xmlns="http://www.w3.org/2000/svg" xmlns:xlink="http://www.w3.org/1999/xlink">
<g id="graph0" class="graph" transform="scale(1 1) rotate(0) translate(4 272)">
<title>g</title>
<polygon fill="#ffffff" stroke="transparent" points="-4,4 -4,-272 1014.3877,-272 1014.3877,4 -4,4"/>
<g id="clust1" class="cluster">
<title>cluster_0</title>
<polygon fill="none" stroke="#000000" stroke-dasharray="1,5" points="388.3223,-64 388.3223,-116 686.3223,-116 686.3223,-64 388.3223,-64"/>
</g>
<g id="clust2" class="cluster">
<title>cluster_1</title>
<polygon fill="none" stroke="#000000" stroke-dasharray="1,5" points="69.3223,-208 69.3223,-260 545.3223,-260 545.3223,-208 69.3223,-208"/>
</g>
<!-- ofc -->
<g id="node1" class="node">
<title>ofc</title>
<path fill="none" stroke="#000000" d="M742.0481,-248.7273C742.0481,-250.5331 700.0387,-252 648.3223,-252 596.6059,-252 554.5965,-250.5331 554.5965,-248.7273 554.5965,-248.7273 554.5965,-219.2727 554.5965,-219.2727 554.5965,-217.4669 596.6059,-216 648.3223,-216 700.0387,-216 742.0481,-217.4669 742.0481,-219.2727 742.0481,-219.2727 742.0481,-248.7273 742.0481,-248.7273"/>
<path fill="none" stroke="#000000" d="M742.0481,-248.7273C742.0481,-246.9214 700.0387,-245.4545 648.3223,-245.4545 596.6059,-245.4545 554.5965,-246.9214 554.5965,-248.7273"/>
<text text-anchor="middle" x="648.3223" y="-229.8" font-family="sans-serif" font-size="14.00" fill="#000000">orbital frontal ctx (BA 11,47)</text>
</g>
<!-- ppc -->
<g id="node6" class="node">
<title>ppc</title>
<path fill="none" stroke="#000000" d="M688.6076,-176.7273C688.6076,-178.5331 646.3474,-180 594.3223,-180 542.2972,-180 500.037,-178.5331 500.037,-176.7273 500.037,-176.7273 500.037,-147.2727 500.037,-147.2727 500.037,-145.4669 542.2972,-144 594.3223,-144 646.3474,-144 688.6076,-145.4669 688.6076,-147.2727 688.6076,-147.2727 688.6076,-176.7273 688.6076,-176.7273"/>
<path fill="none" stroke="#000000" d="M688.6076,-176.7273C688.6076,-174.9214 646.3474,-173.4545 594.3223,-173.4545 542.2972,-173.4545 500.037,-174.9214 500.037,-176.7273"/>
<text text-anchor="middle" x="594.3223" y="-157.8" font-family="sans-serif" font-size="14.00" fill="#000000">PPC (BA 5,7,39,40a; 18a,2)</text>
</g>
<!-- ofc&#45;&gt;ppc -->
<g id="edge19" class="edge">
<title>ofc&#45;&gt;ppc</title>
<path fill="none" stroke="#000000" d="M634.6958,-215.8314C628.4762,-207.5386 620.99,-197.557 614.1623,-188.4533"/>
<polygon fill="none" stroke="#000000" points="616.9323,-186.3133 608.1322,-180.4133 611.3323,-190.5133 616.9323,-186.3133"/>
</g>
<!-- m2 -->
<g id="node2" class="node">
<title>m2</title>
<path fill="none" stroke="#000000" d="M263.918,-104.7273C263.918,-106.5331 208.5204,-108 140.3223,-108 72.1241,-108 16.7266,-106.5331 16.7266,-104.7273 16.7266,-104.7273 16.7266,-75.2727 16.7266,-75.2727 16.7266,-73.4669 72.1241,-72 140.3223,-72 208.5204,-72 263.918,-73.4669 263.918,-75.2727 263.918,-75.2727 263.918,-104.7273 263.918,-104.7273"/>
<path fill="none" stroke="#000000" d="M263.918,-104.7273C263.918,-102.9214 208.5204,-101.4545 140.3223,-101.4545 72.1241,-101.4545 16.7266,-102.9214 16.7266,-104.7273"/>
<text text-anchor="middle" x="140.3223" y="-85.8" font-family="sans-serif" font-size="14.00" fill="#000000">M2 (BA 6), FEF (BA 8), Cg (BA 8, 24)</text>
</g>
<!-- m1 -->
<g id="node3" class="node">
<title>m1</title>
<path fill="none" stroke="#000000" d="M103.5707,-32.7273C103.5707,-34.5331 85.9789,-36 64.3223,-36 42.6656,-36 25.0738,-34.5331 25.0738,-32.7273 25.0738,-32.7273 25.0738,-3.2727 25.0738,-3.2727 25.0738,-1.4669 42.6656,0 64.3223,0 85.9789,0 103.5707,-1.4669 103.5707,-3.2727 103.5707,-3.2727 103.5707,-32.7273 103.5707,-32.7273"/>
<path fill="none" stroke="#000000" d="M103.5707,-32.7273C103.5707,-30.9214 85.9789,-29.4545 64.3223,-29.4545 42.6656,-29.4545 25.0738,-30.9214 25.0738,-32.7273"/>
<text text-anchor="middle" x="64.3223" y="-13.8" font-family="sans-serif" font-size="14.00" fill="#000000">M1 (BA 4)</text>
</g>
<!-- m2&#45;&gt;m1 -->
<g id="edge14" class="edge">
<title>m2&#45;&gt;m1</title>
<path fill="none" stroke="#000000" d="M121.1443,-71.8314C111.9635,-63.1337 100.8216,-52.5783 90.8447,-43.1265"/>
<polygon fill="none" stroke="#000000" points="93.1608,-40.4995 83.4942,-36.1628 88.3466,-45.5811 93.1608,-40.4995"/>
</g>
<!-- m2&#45;&gt;ppc -->
<g id="edge13" class="edge">
<title>m2&#45;&gt;ppc</title>
<path fill="none" stroke="#000000" d="M234.5451,-107.3555C250.5097,-110.3795 266.8961,-113.3886 282.3223,-116 351.467,-127.705 429.3235,-138.9103 490.0059,-147.3307"/>
<polygon fill="none" stroke="#000000" points="489.5909,-150.8066 499.9763,-148.7107 490.5507,-143.8727 489.5909,-150.8066"/>
</g>
<!-- s1 -->
<g id="node4" class="node">
<title>s1</title>
<path fill="none" stroke="#000000" d="M203.3466,-248.7273C203.3466,-250.5331 175.0981,-252 140.3223,-252 105.5465,-252 77.298,-250.5331 77.298,-248.7273 77.298,-248.7273 77.298,-219.2727 77.298,-219.2727 77.298,-217.4669 105.5465,-216 140.3223,-216 175.0981,-216 203.3466,-217.4669 203.3466,-219.2727 203.3466,-219.2727 203.3466,-248.7273 203.3466,-248.7273"/>
<path fill="none" stroke="#000000" d="M203.3466,-248.7273C203.3466,-246.9214 175.0981,-245.4545 140.3223,-245.4545 105.5465,-245.4545 77.298,-246.9214 77.298,-248.7273"/>
<text text-anchor="middle" x="140.3223" y="-229.8" font-family="sans-serif" font-size="14.00" fill="#000000">S1 (BA 1,2,3b,3a)</text>
</g>
<!-- s1&#45;&gt;m2 -->
<g id="edge18" class="edge">
<title>s1&#45;&gt;m2</title>
<path fill="none" stroke="#000000" d="M140.3223,-215.7623C140.3223,-191.201 140.3223,-147.2474 140.3223,-118.3541"/>
<polygon fill="none" stroke="#000000" points="143.8224,-118.0896 140.3223,-108.0896 136.8224,-118.0897 143.8224,-118.0896"/>
</g>
<!-- s1&#45;&gt;m1 -->
<g id="edge17" class="edge">
<title>s1&#45;&gt;m1</title>
<path fill="none" stroke="#000000" d="M107.0873,-215.8526C74.7589,-196.0952 27.6391,-161.1859 7.3223,-116 -2.1552,-94.9215 -2.6448,-84.8514 7.3223,-64 11.39,-55.4903 17.8855,-48.0501 25.0605,-41.7742"/>
<polygon fill="none" stroke="#000000" points="27.3892,-44.3939 33.0301,-35.4255 23.0277,-38.9187 27.3892,-44.3939"/>
</g>
<!-- s1&#45;&gt;ppc -->
<g id="edge16" class="edge">
<title>s1&#45;&gt;ppc</title>
<path fill="none" stroke="#000000" d="M184.0115,-216.44C193.2441,-213.2352 203.0124,-210.2112 212.3223,-208 304.6864,-186.0625 412.2284,-174.3054 489.6302,-168.1863"/>
<polygon fill="none" stroke="#000000" points="490.1685,-171.6553 499.8694,-167.3958 489.6296,-164.676 490.1685,-171.6553"/>
</g>
<!-- a1 -->
<g id="node5" class="node">
<title>a1</title>
<path fill="none" stroke="#000000" d="M536.9943,-248.7273C536.9943,-250.5331 513.8341,-252 485.3223,-252 456.8105,-252 433.6503,-250.5331 433.6503,-248.7273 433.6503,-248.7273 433.6503,-219.2727 433.6503,-219.2727 433.6503,-217.4669 456.8105,-216 485.3223,-216 513.8341,-216 536.9943,-217.4669 536.9943,-219.2727 536.9943,-219.2727 536.9943,-248.7273 536.9943,-248.7273"/>
<path fill="none" stroke="#000000" d="M536.9943,-248.7273C536.9943,-246.9214 513.8341,-245.4545 485.3223,-245.4545 456.8105,-245.4545 433.6503,-246.9214 433.6503,-248.7273"/>
<text text-anchor="middle" x="485.3223" y="-229.8" font-family="sans-serif" font-size="14.00" fill="#000000">A1 (BA 41,42)</text>
</g>
<!-- a1&#45;&gt;ppc -->
<g id="edge15" class="edge">
<title>a1&#45;&gt;ppc</title>
<path fill="none" stroke="#000000" d="M512.8276,-215.8314C526.6403,-206.7074 543.5479,-195.539 558.3752,-185.7449"/>
<polygon fill="none" stroke="#000000" points="560.4109,-188.5949 566.8258,-180.1628 556.5527,-182.7541 560.4109,-188.5949"/>
</g>
<!-- ppc&#45;&gt;m2 -->
<g id="edge12" class="edge">
<title>ppc&#45;&gt;m2</title>
<path fill="none" stroke="#000000" d="M499.8269,-150.7422C433.6056,-142.0818 343.2835,-129.3668 264.3223,-116 252.8142,-114.0519 240.7718,-111.8824 228.8998,-109.6505"/>
<polygon fill="none" stroke="#000000" points="229.4607,-106.1946 218.9829,-107.7646 228.1529,-113.0713 229.4607,-106.1946"/>
</g>
<!-- rsa -->
<g id="node8" class="node">
<title>rsa</title>
<path fill="none" stroke="#000000" d="M590.4249,-32.7273C590.4249,-34.5331 555.418,-36 512.3223,-36 469.2265,-36 434.2197,-34.5331 434.2197,-32.7273 434.2197,-32.7273 434.2197,-3.2727 434.2197,-3.2727 434.2197,-1.4669 469.2265,0 512.3223,0 555.418,0 590.4249,-1.4669 590.4249,-3.2727 590.4249,-3.2727 590.4249,-32.7273 590.4249,-32.7273"/>
<path fill="none" stroke="#000000" d="M590.4249,-32.7273C590.4249,-30.9214 555.418,-29.4545 512.3223,-29.4545 469.2265,-29.4545 434.2197,-30.9214 434.2197,-32.7273"/>
<text text-anchor="middle" x="512.3223" y="-13.8" font-family="sans-serif" font-size="14.00" fill="#000000">RSA (BA 29d,29c,29b)</text>
</g>
<!-- ppc&#45;&gt;rsa -->
<g id="edge2" class="edge">
<title>ppc&#45;&gt;rsa</title>
<path fill="none" stroke="#000000" d="M649.1304,-143.9011C661.7283,-137.2337 673.6409,-128.1983 681.3223,-116 693.6373,-96.4433 695.4729,-82.2725 681.3223,-64 670.5148,-50.0446 635.821,-39.5615 600.6235,-32.1553"/>
<polygon fill="none" stroke="#000000" points="601.1976,-28.7006 590.7021,-30.1476 599.8092,-35.5615 601.1976,-28.7006"/>
</g>
<!-- ld -->
<g id="node11" class="node">
<title>ld</title>
<path fill="none" stroke="#000000" d="M678.3464,-104.7273C678.3464,-106.5331 640.6854,-108 594.3223,-108 547.9591,-108 510.2982,-106.5331 510.2982,-104.7273 510.2982,-104.7273 510.2982,-75.2727 510.2982,-75.2727 510.2982,-73.4669 547.9591,-72 594.3223,-72 640.6854,-72 678.3464,-73.4669 678.3464,-75.2727 678.3464,-75.2727 678.3464,-104.7273 678.3464,-104.7273"/>
<path fill="none" stroke="#000000" d="M678.3464,-104.7273C678.3464,-102.9214 640.6854,-101.4545 594.3223,-101.4545 547.9591,-101.4545 510.2982,-102.9214 510.2982,-104.7273"/>
<text text-anchor="middle" x="594.3223" y="-85.8" font-family="sans-serif" font-size="14.00" fill="#000000">LD/LP/pulvinar thalamus</text>
</g>
<!-- ppc&#45;&gt;ld -->
<g id="edge22" class="edge">
<title>ppc&#45;&gt;ld</title>
<path fill="none" stroke="#000000" d="M600.2747,-143.8314C601.0251,-136.131 601.246,-126.9743 600.9374,-118.4166"/>
<polygon fill="none" stroke="#000000" points="604.4288,-118.1697 600.2983,-108.4133 597.4431,-118.6161 604.4288,-118.1697"/>
</g>
<!-- sc -->
<g id="node13" class="node">
<title>sc</title>
<path fill="none" stroke="#000000" d="M881.9293,-104.7273C881.9293,-106.5331 852.9714,-108 817.3223,-108 781.6732,-108 752.7152,-106.5331 752.7152,-104.7273 752.7152,-104.7273 752.7152,-75.2727 752.7152,-75.2727 752.7152,-73.4669 781.6732,-72 817.3223,-72 852.9714,-72 881.9293,-73.4669 881.9293,-75.2727 881.9293,-75.2727 881.9293,-104.7273 881.9293,-104.7273"/>
<path fill="none" stroke="#000000" d="M881.9293,-104.7273C881.9293,-102.9214 852.9714,-101.4545 817.3223,-101.4545 781.6732,-101.4545 752.7152,-102.9214 752.7152,-104.7273"/>
<text text-anchor="middle" x="817.3223" y="-85.8" font-family="sans-serif" font-size="14.00" fill="#000000">Superior colliculus</text>
</g>
<!-- ppc&#45;&gt;sc -->
<g id="edge20" class="edge">
<title>ppc&#45;&gt;sc</title>
<path fill="none" stroke="#000000" d="M650.7798,-144.0907C677.36,-135.6269 709.4879,-125.3502 738.3223,-116 743.8656,-114.2025 749.6246,-112.3255 755.3935,-110.4388"/>
<polygon fill="none" stroke="#000000" points="756.6619,-113.7063 765.0751,-107.2667 754.4824,-107.0543 756.6619,-113.7063"/>
</g>
<!-- str -->
<g id="node14" class="node">
<title>str</title>
<path fill="none" stroke="#000000" d="M1010.4532,-104.7273C1010.4532,-106.5331 985.7427,-108 955.3223,-108 924.9019,-108 900.1913,-106.5331 900.1913,-104.7273 900.1913,-104.7273 900.1913,-75.2727 900.1913,-75.2727 900.1913,-73.4669 924.9019,-72 955.3223,-72 985.7427,-72 1010.4532,-73.4669 1010.4532,-75.2727 1010.4532,-75.2727 1010.4532,-104.7273 1010.4532,-104.7273"/>
<path fill="none" stroke="#000000" d="M1010.4532,-104.7273C1010.4532,-102.9214 985.7427,-101.4545 955.3223,-101.4545 924.9019,-101.4545 900.1913,-102.9214 900.1913,-104.7273"/>
<text text-anchor="middle" x="955.3223" y="-85.8" font-family="sans-serif" font-size="14.00" fill="#000000">Dorsal striatum</text>
</g>
<!-- ppc&#45;&gt;str -->
<g id="edge21" class="edge">
<title>ppc&#45;&gt;str</title>
<path fill="none" stroke="#000000" d="M688.8049,-153.0372C747.7594,-146.0562 824.8136,-134.3905 891.3223,-116 896.3235,-114.6171 901.4622,-112.959 906.5492,-111.1582"/>
<polygon fill="none" stroke="#000000" points="908.0704,-114.3265 916.2182,-107.5542 905.6255,-107.7674 908.0704,-114.3265"/>
</g>
<!-- vis -->
<g id="node7" class="node">
<title>vis</title>
<path fill="none" stroke="#000000" d="M415.5558,-248.7273C415.5558,-250.5331 371.9742,-252 318.3223,-252 264.6704,-252 221.0887,-250.5331 221.0887,-248.7273 221.0887,-248.7273 221.0887,-219.2727 221.0887,-219.2727 221.0887,-217.4669 264.6704,-216 318.3223,-216 371.9742,-216 415.5558,-217.4669 415.5558,-219.2727 415.5558,-219.2727 415.5558,-248.7273 415.5558,-248.7273"/>
<path fill="none" stroke="#000000" d="M415.5558,-248.7273C415.5558,-246.9214 371.9742,-245.4545 318.3223,-245.4545 264.6704,-245.4545 221.0887,-246.9214 221.0887,-248.7273"/>
<text text-anchor="middle" x="318.3223" y="-229.8" font-family="sans-serif" font-size="14.00" fill="#000000">V2 (BA 18b,18a), V1 (BA 17)</text>
</g>
<!-- vis&#45;&gt;m2 -->
<g id="edge11" class="edge">
<title>vis&#45;&gt;m2</title>
<path fill="none" stroke="#000000" d="M295.7785,-215.7623C264.0806,-190.119 206.253,-143.3372 170.763,-114.6262"/>
<polygon fill="none" stroke="#000000" points="172.6589,-111.658 162.6831,-108.0896 168.2562,-117.1002 172.6589,-111.658"/>
</g>
<!-- vis&#45;&gt;ppc -->
<g id="edge7" class="edge">
<title>vis&#45;&gt;ppc</title>
<path fill="none" stroke="#000000" d="M385.8395,-216.3868C425.5827,-206.019 475.9872,-192.87 517.2792,-182.0982"/>
<polygon fill="none" stroke="#000000" points="518.2317,-185.4669 527.0244,-179.556 516.4647,-178.6936 518.2317,-185.4669"/>
</g>
<!-- vis&#45;&gt;rsa -->
<g id="edge8" class="edge">
<title>vis&#45;&gt;rsa</title>
<path fill="none" stroke="#000000" d="M323.3266,-215.7401C334.3967,-176.5178 361.7669,-85.9914 384.3223,-64 395.7335,-52.8741 410.0246,-44.4175 424.884,-37.9958"/>
<polygon fill="none" stroke="#000000" points="426.2163,-41.2326 434.1888,-34.2548 423.605,-34.7378 426.2163,-41.2326"/>
</g>
<!-- ent -->
<g id="node9" class="node">
<title>ent</title>
<path fill="none" stroke="#000000" d="M340.6156,-104.7273C340.6156,-106.5331 327.4859,-108 311.3223,-108 295.1587,-108 282.029,-106.5331 282.029,-104.7273 282.029,-104.7273 282.029,-75.2727 282.029,-75.2727 282.029,-73.4669 295.1587,-72 311.3223,-72 327.4859,-72 340.6156,-73.4669 340.6156,-75.2727 340.6156,-75.2727 340.6156,-104.7273 340.6156,-104.7273"/>
<path fill="none" stroke="#000000" d="M340.6156,-104.7273C340.6156,-102.9214 327.4859,-101.4545 311.3223,-101.4545 295.1587,-101.4545 282.029,-102.9214 282.029,-104.7273"/>
<text text-anchor="middle" x="311.3223" y="-85.8" font-family="sans-serif" font-size="14.00" fill="#000000">Ent ctx</text>
</g>
<!-- vis&#45;&gt;ent -->
<g id="edge9" class="edge">
<title>vis&#45;&gt;ent</title>
<path fill="none" stroke="#000000" d="M317.4357,-215.7623C316.2418,-191.201 314.1051,-147.2474 312.7006,-118.3541"/>
<polygon fill="none" stroke="#000000" points="316.1831,-117.9079 312.2016,-108.0896 309.1914,-118.2478 316.1831,-117.9079"/>
</g>
<!-- rsa&#45;&gt;ppc -->
<g id="edge3" class="edge">
<title>rsa&#45;&gt;ppc</title>
<path fill="none" stroke="#000000" d="M590.4011,-27.2919C635.5331,-34.6679 685.8865,-46.6506 699.3223,-64 713.4729,-82.2725 711.6373,-96.4433 699.3223,-116 693.1908,-125.737 684.3633,-133.4587 674.3844,-139.5694"/>
<polygon fill="none" stroke="#000000" points="672.4324,-136.6485 665.3574,-144.5349 675.8063,-142.7818 672.4324,-136.6485"/>
</g>
<!-- ent&#45;&gt;rsa -->
<g id="edge4" class="edge">
<title>ent&#45;&gt;rsa</title>
<path fill="none" stroke="#000000" d="M337.1176,-72.9252C342.653,-69.6853 348.5707,-66.5243 354.3223,-64 378.2257,-53.5092 405.1937,-44.6472 429.9936,-37.5876"/>
<polygon fill="none" stroke="#000000" points="431.0488,-40.927 439.7428,-34.872 429.1704,-34.1837 431.0488,-40.927"/>
</g>
<!-- hp -->
<g id="node10" class="node">
<title>hp</title>
<path fill="none" stroke="#000000" d="M416.394,-32.7273C416.394,-34.5331 369.2992,-36 311.3223,-36 253.3454,-36 206.2506,-34.5331 206.2506,-32.7273 206.2506,-32.7273 206.2506,-3.2727 206.2506,-3.2727 206.2506,-1.4669 253.3454,0 311.3223,0 369.2992,0 416.394,-1.4669 416.394,-3.2727 416.394,-3.2727 416.394,-32.7273 416.394,-32.7273"/>
<path fill="none" stroke="#000000" d="M416.394,-32.7273C416.394,-30.9214 369.2992,-29.4545 311.3223,-29.4545 253.3454,-29.4545 206.2506,-30.9214 206.2506,-32.7273"/>
<text text-anchor="middle" x="311.3223" y="-13.8" font-family="sans-serif" font-size="14.00" fill="#000000">Hippocampus (BA 27,28,35,36)</text>
</g>
<!-- ent&#45;&gt;hp -->
<g id="edge5" class="edge">
<title>ent&#45;&gt;hp</title>
<path fill="none" stroke="#000000" d="M305.3699,-71.8314C304.6195,-64.131 304.3986,-54.9743 304.7072,-46.4166"/>
<polygon fill="none" stroke="#000000" points="308.2015,-46.6161 305.3463,-36.4133 301.2157,-46.1697 308.2015,-46.6161"/>
</g>
<!-- hp&#45;&gt;ent -->
<g id="edge6" class="edge">
<title>hp&#45;&gt;ent</title>
<path fill="none" stroke="#000000" d="M317.2983,-36.4133C318.0294,-44.0593 318.2426,-53.1084 317.9378,-61.5726"/>
<polygon fill="none" stroke="#000000" points="314.4271,-61.6264 317.2747,-71.8314 321.4125,-62.078 314.4271,-61.6264"/>
</g>
<!-- ld&#45;&gt;ppc -->
<g id="edge1" class="edge">
<title>ld&#45;&gt;ppc</title>
<path fill="none" stroke="#000000" d="M588.3463,-108.4133C587.6152,-116.0593 587.402,-125.1084 587.7068,-133.5726"/>
<polygon fill="none" stroke="#000000" points="584.2321,-134.078 588.3699,-143.8314 591.2175,-133.6264 584.2321,-134.078"/>
</g>
<!-- ad -->
<g id="node12" class="node">
<title>ad</title>
<path fill="none" stroke="#000000" d="M492.4669,-104.7273C492.4669,-106.5331 470.8877,-108 444.3223,-108 417.7568,-108 396.1776,-106.5331 396.1776,-104.7273 396.1776,-104.7273 396.1776,-75.2727 396.1776,-75.2727 396.1776,-73.4669 417.7568,-72 444.3223,-72 470.8877,-72 492.4669,-73.4669 492.4669,-75.2727 492.4669,-75.2727 492.4669,-104.7273 492.4669,-104.7273"/>
<path fill="none" stroke="#000000" d="M492.4669,-104.7273C492.4669,-102.9214 470.8877,-101.4545 444.3223,-101.4545 417.7568,-101.4545 396.1776,-102.9214 396.1776,-104.7273"/>
<text text-anchor="middle" x="444.3223" y="-85.8" font-family="sans-serif" font-size="14.00" fill="#000000">AD thalamus</text>
</g>
<!-- ad&#45;&gt;rsa -->
<g id="edge10" class="edge">
<title>ad&#45;&gt;rsa</title>
<path fill="none" stroke="#000000" d="M461.4816,-71.8314C469.4734,-63.3694 479.1261,-53.1489 487.8639,-43.8971"/>
<polygon fill="none" stroke="#000000" points="490.6103,-46.0866 494.932,-36.4133 485.5212,-41.2802 490.6103,-46.0866"/>
</g>
<!-- sc&#45;&gt;ld -->
<g id="edge23" class="edge">
<title>sc&#45;&gt;ld</title>
<path fill="none" stroke="#000000" d="M752.4658,-90C731.1476,-90 709.8295,-90 688.5114,-90"/>
<polygon fill="none" stroke="#000000" points="688.3829,-86.5001 678.3828,-90 688.3828,-93.5001 688.3829,-86.5001"/>
</g>
</g>
</svg>
